<svg width="20" height="20" viewBox="0 0 20 20" fill="none" xmlns="http://www.w3.org/2000/svg">
<path fill-rule="evenodd" clip-rule="evenodd" d="M7.50482 0.0852435C7.30206 0.187848 7.42517 0.0381212 4.624 3.58961L2.47238 6.31754L1.86601 6.31878C1.18927 6.32014 0.995151 6.3605 0.684378 6.56439C0.314104 6.80736 0.0435472 7.2677 0.00211868 7.72528C-0.0181848 7.94978 0.0932301 8.56812 0.963385 13.0595C1.50473 15.8536 1.97488 18.2387 2.00813 18.3597C2.16669 18.9364 2.58168 19.4702 3.07831 19.7365C3.60225 20.0173 3.14223 19.9998 10.0031 19.9998C15.5236 19.9998 16.2183 19.9929 16.4327 19.9364C17.133 19.7518 17.7593 19.1426 17.9675 18.4437C17.9976 18.3425 18.4736 15.9376 19.0252 13.0995C20.0133 8.01618 20.0277 7.93506 19.9894 7.6592C19.9122 7.1025 19.6231 6.69824 19.1238 6.44867L18.8247 6.29914L18.0423 6.28454L17.2599 6.26998L14.9421 3.3444C13.6674 1.73536 12.5706 0.360337 12.5049 0.288813C12.3185 0.0860035 12.1678 0.0215205 11.8808 0.0216805C11.4366 0.0218805 11.1558 0.251931 11.0599 0.694072C11.0077 0.935004 11.0789 1.2251 11.2484 1.46147C11.3105 1.54807 12.199 2.66297 13.2227 3.93903L15.0842 6.25914L9.89665 6.2693C7.04348 6.27486 4.7022 6.27242 4.69379 6.26382C4.68542 6.25526 5.55197 5.15264 6.61953 3.81358C7.68705 2.47452 8.5946 1.3121 8.6363 1.2305C8.72632 1.05417 8.73747 0.698472 8.65899 0.506383C8.58944 0.336175 8.38613 0.131086 8.21404 0.0575622C8.0121 -0.0287219 7.70637 -0.0168013 7.50482 0.0852435ZM6.85386 10.6441C7.06147 10.7029 7.35898 11.0071 7.41649 11.2194C7.44532 11.326 7.45988 12.0151 7.45999 13.2849L7.46023 15.1904L7.35096 15.4043C7.07513 15.9442 6.42119 16.0438 5.9974 15.6105C5.73959 15.3469 5.73384 15.2904 5.74691 13.1529C5.75837 11.2775 5.75935 11.2578 5.84643 11.0912C6.04755 10.7063 6.44724 10.529 6.85386 10.6441ZM10.2408 10.645C10.4392 10.7058 10.6506 10.8892 10.7573 11.0932C10.843 11.2572 10.8443 11.2843 10.8557 13.1529C10.8688 15.2904 10.863 15.3469 10.6052 15.6105C10.1814 16.0438 9.5275 15.9442 9.25167 15.4043L9.1424 15.1904L9.14264 13.2849C9.14276 12.04 9.15754 11.3253 9.18524 11.2232C9.23993 11.0218 9.50963 10.7319 9.70965 10.6595C9.90263 10.5896 10.0472 10.5857 10.2408 10.645ZM13.6217 10.6435C13.8345 10.7031 14.12 11.0069 14.1836 11.2416C14.2195 11.3741 14.2288 11.9088 14.2202 13.3395L14.2085 15.2596L14.1032 15.4427C14.0453 15.5435 13.9221 15.6785 13.8293 15.7427C13.6802 15.8462 13.6271 15.8596 13.3674 15.8596C13.1144 15.8596 13.0535 15.8451 12.9252 15.7544C12.7418 15.6249 12.5965 15.4284 12.5457 15.2412C12.4897 15.0353 12.4945 11.4847 12.551 11.2552C12.6075 11.0259 12.863 10.7346 13.074 10.6589C13.2653 10.5904 13.4163 10.5861 13.6217 10.6435Z" fill="white"/>
</svg>
