<svg width="383" height="403" viewBox="0 0 383 403" fill="none" xmlns="http://www.w3.org/2000/svg">
<path d="M109.356 315.817L118.811 315.154L132.802 316.535L123.036 320.157L109.356 315.817Z" fill="#F466BA"/>
<path d="M123.705 320.673L109.356 319.244V315.817L123.705 317.249V320.673Z" fill="#FFB617"/>
<path d="M132.802 319.959L123.715 320.673V317.249L132.802 316.535V319.959Z" fill="#B10069"/>
<path d="M135.845 345.723C135.643 345.853 135.413 345.934 135.174 345.959C134.935 345.983 134.693 345.951 134.469 345.864C134.245 345.778 134.044 345.64 133.884 345.461C133.723 345.282 133.607 345.068 133.545 344.836L126.819 318.86C126.303 316.97 129.288 316.182 129.756 318.101C129.464 319.001 138.16 345.733 135.845 345.723Z" fill="url(#paint0_linear_18_1561)"/>
<path d="M128.939 317.134C128.642 317.289 128.405 317.54 128.268 317.846C128.13 318.152 128.099 318.496 128.18 318.821L134.906 344.797C134.966 345.009 135.072 345.204 135.216 345.37C135.36 345.536 135.538 345.669 135.739 345.758C136.037 345.602 136.273 345.348 136.407 345.04C136.542 344.731 136.567 344.386 136.479 344.061L129.753 318.088C129.695 317.879 129.592 317.685 129.452 317.521C129.311 317.356 129.136 317.224 128.939 317.134Z" fill="black"/>
<path d="M139.489 346.533C136.024 346.511 135.886 340.989 139.489 340.829L191.643 337.834C194.35 337.677 195.371 334.035 193.177 332.357L150.6 299.825C147.686 297.733 150.575 292.884 153.663 295.116C225.05 352.923 237.003 339.817 139.489 346.533Z" fill="black"/>
<path d="M210.076 345.07L135.447 356.92C133.597 357.211 131.705 357.111 129.895 356.628C128.085 356.144 126.396 355.289 124.936 354.115C123.475 352.941 122.277 351.475 121.416 349.811C120.555 348.146 120.051 346.321 119.937 344.451C119.823 342.581 120.101 340.707 120.752 338.951C121.404 337.194 122.415 335.593 123.722 334.25C125.028 332.907 126.601 331.852 128.339 331.152C130.077 330.452 131.941 330.123 133.814 330.185L209.327 332.879C210.913 332.936 212.414 333.607 213.516 334.749C214.618 335.891 215.233 337.416 215.233 339.003C215.237 340.463 214.72 341.876 213.774 342.988C212.829 344.1 211.517 344.838 210.076 345.07Z" fill="#7E5820"/>
<path d="M121.675 345.066C121.673 343.259 122.037 341.469 122.743 339.805C123.448 338.141 124.482 336.636 125.783 335.38C127.083 334.125 128.624 333.144 130.312 332.497C132 331.85 133.801 331.549 135.607 331.614L211.12 334.308C212.033 334.344 212.925 334.587 213.73 335.019C214.803 330.855 135.563 331.175 133.82 330.195C120.403 329.452 114.747 347.92 125.954 354.877C124.603 353.625 123.526 352.107 122.789 350.419C122.053 348.73 121.674 346.908 121.675 345.066Z" fill="#FBB040"/>
<path d="M211.155 308.668C174.472 296.337 153.182 360.754 189.51 373.23C226.187 385.555 247.496 321.137 211.155 308.668ZM226.011 349.256C212.927 386.118 165.59 369.633 177.406 332.626C190.503 295.766 237.839 312.249 226.011 349.256Z" fill="black"/>
<path d="M214.32 307.672C176.247 294.931 153.704 361.196 191.739 374.213C229.813 386.955 252.358 320.686 214.32 307.672ZM228.093 348.952C215.454 384.341 169.19 368.752 180.689 332.937C193.341 297.544 239.588 313.133 228.083 348.952H228.093Z" fill="url(#paint1_linear_18_1561)"/>
<g style="mix-blend-mode:multiply">
<path d="M214.32 307.672C176.247 294.931 153.704 361.196 191.739 374.213C229.813 386.955 252.358 320.686 214.32 307.672ZM228.093 348.952C215.454 384.341 169.19 368.752 180.689 332.937C193.341 297.544 239.588 313.133 228.083 348.952H228.093Z" fill="#FFF200"/>
</g>
<path d="M206.591 330.304C194.1 330.237 191.698 352.126 205.198 352.404C217.741 352.385 220.332 330.647 206.591 330.304Z" fill="black"/>
<path d="M215.505 341.905C214.983 350.899 202.309 351.799 202.594 342.046C203.055 332.806 215.883 331.867 215.505 341.905Z" fill="url(#paint2_linear_18_1561)"/>
<path d="M214.954 341.924C214.595 348.429 205.422 349.08 205.646 342.027C205.995 335.387 215.207 334.711 214.954 341.924Z" fill="url(#paint3_linear_18_1561)"/>
<path d="M216.466 296.462C166.052 279.64 135.787 366.833 186.461 384.123C236.872 400.945 267.14 313.751 216.466 296.462ZM237.077 351.587C219.23 401.339 153.355 379.661 169.7 329.007C187.547 279.252 253.425 300.926 237.077 351.587Z" fill="#231F20"/>
<path d="M169.7 329C178.053 304.017 206.431 291.942 226.004 307.316C225.356 304.617 224.406 301.998 223.173 299.511C190.929 279.669 151.062 320.519 161.311 355.396C164.009 356.198 166.762 356.796 169.549 357.186C166.554 348.676 166.372 338.728 169.7 329Z" fill="#414042"/>
<path d="M164.043 323.978C166.131 325.083 168.334 325.956 170.612 326.582C176.378 312.403 188.472 302.794 201.511 300.862C198.459 299.012 195.119 297.683 191.63 296.929C179.888 301.144 169.565 310.804 164.043 323.978Z" fill="#808285"/>
<path d="M216.402 299.479C168.515 283.464 140.101 366.741 187.989 383.114C235.889 399.135 264.302 315.852 216.402 299.479ZM193.402 372.605C157.208 360.213 178.668 297.147 214.893 309.28C251.106 321.669 229.643 384.738 193.414 372.605H193.402Z" fill="black"/>
<path d="M164.482 343.945L155.725 343.727C155.456 299.629 211.053 269.999 238.922 307.012C237.139 308.355 234.953 309.052 232.722 308.99C230.491 308.928 228.347 308.109 226.642 306.669C201.729 285.053 164.12 311.871 164.482 343.945Z" fill="#FBB040"/>
<path opacity="0.5" d="M218.83 292.352C202.239 286.75 184.209 292.429 171.654 305.427C189.968 286.833 221.479 286.737 237.202 308.027C237.808 307.747 238.385 307.406 238.922 307.009C233.863 300.202 226.856 295.091 218.83 292.352Z" fill="white"/>
<g style="mix-blend-mode:multiply">
<path d="M191.147 292.746C171.66 298.995 155.76 321.662 155.725 343.727L164.482 343.945C164.45 324.407 179.392 304.177 196.832 300.155C195.769 297.145 193.778 294.551 191.147 292.746Z" fill="#A7A9AC"/>
</g>
<path d="M137.785 348.132C133.887 348.1 133.763 342.222 137.785 342.046L196.14 338.843C196.805 338.808 197.443 338.567 197.966 338.154C198.488 337.741 198.87 337.177 199.059 336.538C199.247 335.899 199.233 335.217 199.019 334.587C198.804 333.956 198.399 333.408 197.86 333.017L150.213 298.419C146.907 296.023 150.248 291.087 153.643 293.406C237.045 356.635 243.07 340.515 137.785 348.132Z" fill="#FFDE17"/>
<g style="mix-blend-mode:multiply">
<path d="M216.155 342.917C215.919 342.325 215.522 341.811 215.008 341.434L153.124 296.452C152.513 296.008 151.758 295.808 151.007 295.892C150.256 295.976 149.564 296.338 149.066 296.907C149.293 297.514 149.691 298.043 150.213 298.428L197.844 333.046C204.25 337.85 197.908 341.783 195.602 341.908L137.244 345.111C136.811 345.135 136.387 345.244 135.996 345.432C135.605 345.62 135.256 345.883 134.967 346.207C135.198 346.8 135.611 347.306 136.146 347.651C136.682 347.996 137.313 348.163 137.949 348.128L214.028 343.964C214.435 343.943 214.833 343.839 215.199 343.659C215.565 343.479 215.89 343.226 216.155 342.917Z" fill="#BCBEC0"/>
</g>
<g style="mix-blend-mode:multiply">
<path d="M161.382 299.059L153.643 293.432C153.299 293.182 152.907 293.008 152.491 292.919C152.075 292.831 151.646 292.831 151.23 292.919C150.814 293.007 150.422 293.182 150.078 293.431C149.734 293.681 149.446 293.999 149.233 294.367C148.432 295.738 148.932 297.509 150.213 298.444L158.492 304.46C160.251 302.986 161.052 301.164 161.382 299.059Z" fill="#A7A9AC"/>
</g>
<path d="M135.902 350.627C135.431 350.624 134.968 350.513 134.547 350.301C134.127 350.089 133.761 349.783 133.479 349.407C133.197 349.03 133.005 348.593 132.92 348.13C132.835 347.667 132.858 347.191 132.987 346.738L153.999 275.044C155.117 271.267 160.93 272.917 159.822 276.751L138.81 348.446C138.626 349.074 138.243 349.626 137.719 350.02C137.195 350.413 136.557 350.626 135.902 350.627Z" fill="#FFDE17"/>
<g style="mix-blend-mode:multiply">
<path d="M138.811 348.455L159.822 276.76C159.995 276.172 159.985 275.545 159.793 274.963C159.601 274.381 159.237 273.87 158.749 273.5C158.231 273.888 157.853 274.433 157.67 275.053L136.649 346.748C136.476 347.337 136.486 347.965 136.679 348.548C136.872 349.131 137.238 349.642 137.728 350.012C138.247 349.623 138.626 349.077 138.811 348.455Z" fill="#BCBEC0"/>
</g>
<g style="mix-blend-mode:multiply">
<path d="M157.766 272.997C157.383 272.884 156.982 272.848 156.586 272.89C156.19 272.932 155.805 273.052 155.455 273.243C155.106 273.434 154.797 273.693 154.547 274.003C154.297 274.314 154.111 274.671 153.999 275.053L150.741 286.212C152.971 285.328 155.283 284.667 157.644 284.239L159.835 276.76C159.947 276.377 159.982 275.976 159.939 275.579C159.896 275.183 159.774 274.798 159.582 274.449C159.39 274.099 159.13 273.791 158.819 273.542C158.507 273.292 158.149 273.107 157.766 272.997Z" fill="#A7A9AC"/>
</g>
<path d="M212.382 345.636C211.975 345.523 211.595 345.326 211.269 345.057C210.942 344.788 210.676 344.454 210.486 344.076C210.297 343.698 210.189 343.284 210.17 342.861C210.151 342.439 210.22 342.017 210.374 341.623C210.534 341.232 210.775 340.878 211.08 340.586C211.385 340.293 211.749 340.068 212.147 339.925C212.545 339.781 212.968 339.723 213.39 339.753C213.812 339.784 214.222 339.903 214.595 340.102C218.211 341.565 216.008 347.068 212.382 345.636Z" fill="#BF8920"/>
<path d="M216.255 343.974C214.884 347.357 210.393 345.576 211.732 342.168C213.071 338.76 217.593 340.582 216.255 343.974Z" fill="#FFB72B"/>
<g style="mix-blend-mode:multiply">
<path d="M215.806 343.327C215.534 345.643 212.187 345.685 212.379 343.183C212.571 340.682 216.139 340.617 215.806 343.327Z" fill="black"/>
</g>
<path d="M141.773 256.14C56.0431 237.403 92.4478 309.357 102.316 321.775C105.839 326.185 134.259 316.528 129.612 311.077C121.044 301.023 100.298 272.869 156.164 282.362C168.143 284.399 149.684 257.866 141.773 256.14Z" fill="black"/>
<path d="M133.036 350.14L62.116 290.914L68.7589 279.342L141.459 340.051L133.036 350.14Z" fill="#FFDE17"/>
<g style="mix-blend-mode:multiply">
<path d="M133.458 348.106L63.0416 289.3L62.116 290.914L133.036 350.14L141.459 340.051L140.707 339.426L133.458 348.106Z" fill="#939598"/>
</g>
<path opacity="0.5" d="M68.6372 281.568L140.316 341.422L141.459 340.051L68.7589 279.342L62.116 290.914L62.8943 291.568L68.6372 281.568Z" fill="white"/>
<g style="mix-blend-mode:multiply">
<path d="M68.7618 279.342L62.1157 290.914L70.232 297.691C70.3845 297.818 70.5686 297.902 70.7646 297.932C70.9607 297.963 71.1614 297.939 71.3452 297.865C71.529 297.79 71.6892 297.667 71.8084 297.508C71.9277 297.35 72.0017 297.162 72.0224 296.964L73.23 285.286C73.7264 282.666 70.3473 280.802 68.7618 279.342Z" fill="#A7A9AC"/>
</g>
<path d="M145.886 343.856C145.188 355.944 128.189 357.148 128.574 344.045C129.192 331.627 146.395 330.371 145.886 343.856Z" fill="url(#paint4_linear_18_1561)"/>
<path d="M145.149 343.881C144.668 352.622 132.366 353.49 132.657 344.019C133.125 335.096 145.485 334.192 145.149 343.881Z" fill="url(#paint5_linear_18_1561)"/>
<g style="mix-blend-mode:multiply">
<path d="M145.886 343.856C145.188 355.944 128.189 357.148 128.574 344.045C129.192 331.627 146.395 330.371 145.886 343.856Z" fill="#FFDE17"/>
</g>
<path d="M139.115 348.849C136.511 348.08 135.002 345.268 136.043 342.712C138.285 337.088 147.292 340.688 145.04 346.309C144.818 346.865 144.488 347.372 144.07 347.8C143.652 348.229 143.154 348.571 142.604 348.807C142.053 349.042 141.462 349.168 140.863 349.175C140.265 349.182 139.671 349.071 139.115 348.849Z" fill="#939598"/>
<path d="M145.037 346.306C142.872 351.479 136.123 348.782 138.119 343.542C140.284 338.369 147.036 341.069 145.037 346.306Z" fill="#E6E7E8"/>
<g style="mix-blend-mode:multiply">
<path d="M144.336 345.316C143.858 348.871 138.859 348.961 139.096 345.095C139.333 341.229 144.861 341.172 144.336 345.316Z" fill="black"/>
</g>
<path d="M149.364 371.923C149.162 372.053 148.932 372.134 148.693 372.158C148.454 372.183 148.212 372.15 147.988 372.063C147.763 371.977 147.563 371.838 147.402 371.659C147.242 371.48 147.126 371.265 147.065 371.033L140.338 345.06C139.819 343.17 142.808 342.379 143.275 344.301C142.984 345.201 151.677 371.933 149.364 371.923Z" fill="url(#paint6_linear_18_1561)"/>
<path d="M142.459 343.33C142.161 343.486 141.924 343.738 141.786 344.044C141.649 344.351 141.618 344.695 141.699 345.021L148.426 370.994C148.422 371.157 148.46 371.318 148.536 371.462C148.612 371.606 148.723 371.728 148.859 371.818C148.995 371.907 149.151 371.96 149.314 371.972C149.476 371.985 149.639 371.956 149.787 371.888C149.935 371.82 150.063 371.716 150.159 371.585C150.256 371.454 150.318 371.301 150.339 371.139C150.36 370.978 150.34 370.814 150.28 370.662C150.221 370.511 150.124 370.377 149.998 370.274L143.272 344.298C143.215 344.087 143.113 343.891 142.972 343.724C142.832 343.557 142.657 343.422 142.459 343.33Z" fill="black"/>
<path d="M142.763 370.302L152.218 369.639L166.205 371.02L156.443 374.642L142.763 370.302Z" fill="#F466BA"/>
<path d="M157.109 375.161L142.763 373.729V370.302L157.109 371.734V375.161Z" fill="#FFB617"/>
<path d="M166.205 374.444L157.122 375.161V371.734L166.205 371.02V374.444Z" fill="#02443B"/>
<path d="M155.312 293.412L148.906 292.243C147.327 291.974 146.664 290.322 147.122 288.887C147.177 288.582 147.292 288.292 147.459 288.032C147.627 287.772 147.844 287.547 148.098 287.371C148.353 287.195 148.639 287.071 148.942 287.005C149.244 286.94 149.556 286.935 149.861 286.991L156.267 288.156C159.389 288.675 158.429 294.024 155.312 293.412Z" fill="black"/>
<path d="M175.049 281.988C176.49 289.761 132.84 293.518 132.939 285.597C131.498 277.827 175.148 274.076 175.049 281.988Z" fill="#3C2415"/>
<path d="M132.988 281.398C137.385 274.762 146.494 272.014 163.239 272.039C168.201 272.68 175.154 272.039 176.291 278.701C176.858 281.552 174.831 284.271 172.22 284.146C172.22 284.146 157.362 280.623 144.694 284.752L141.328 286.033C139.714 286.638 129.336 286.779 132.988 281.398Z" fill="#8B5E3C"/>
<path d="M175.792 277.138C174.011 271.966 167.464 272.693 163.239 272.039C151.174 271.2 140.463 275.444 140.463 275.444C137.581 275.87 128.904 282.913 133.679 285.431C147.218 264.275 164.533 283.842 175.792 277.138Z" fill="#A97C50"/>
<path d="M141.536 285.953C148.387 282.884 157.381 282.381 163.569 282.932C168.358 278.355 142.093 275.428 141.536 285.953Z" fill="#603913"/>
<path d="M91.7175 203.9C82.7813 229.184 54.1245 222.297 54.1245 222.297L58.4325 232.973C96.1376 241.541 113.078 227.48 116.086 207.641C109.51 203.24 99.9779 202.01 91.7175 203.9Z" fill="#FEDC9B"/>
<g style="mix-blend-mode:multiply">
<path d="M112.22 205.591C108.306 223.848 91.7495 236.339 56.8086 228.972L58.4293 232.986C96.1344 241.554 113.075 227.493 116.082 207.654C114.859 206.852 113.566 206.161 112.22 205.591Z" fill="#FDDFD8"/>
</g>
<g style="mix-blend-mode:multiply">
<path d="M112.895 218.06C114.496 214.773 115.576 211.259 116.098 207.641C109.51 203.24 99.9779 201.994 91.7175 203.9C90.9357 206.155 89.9021 208.314 88.6362 210.338C97.2714 209.377 107.428 211.939 112.895 218.06Z" fill="#939598"/>
</g>
<path d="M114.888 213.239C119.654 215.818 117.857 183.984 115.061 179.98C112.114 171.012 91.4932 166.041 92.3773 177.001C93.4022 189.733 92.0954 198.925 89.3665 206.148C89.3062 206.322 89.2927 206.509 89.3273 206.69C89.3619 206.871 89.4435 207.04 89.5637 207.18C89.684 207.32 89.8388 207.425 90.0127 207.487C90.1866 207.548 90.3735 207.562 90.5548 207.529C100.151 206.311 108.325 206.843 114.888 213.239Z" fill="#035F52"/>
<g style="mix-blend-mode:multiply">
<path d="M115.06 179.98C113.907 176.457 110.048 173.574 105.833 172.008C111.598 183.721 111.412 198.032 110.186 209.764C111.907 210.699 113.489 211.868 114.888 213.24C119.673 215.812 117.857 183.99 115.06 179.98Z" fill="#D1D3D4"/>
</g>
<path d="M92.2781 64.2832L188.594 0C383.564 6.83509 313.211 -26.8471 382.074 198.054C383.931 205.149 382.973 212.687 379.4 219.091C375.827 225.496 369.917 230.271 362.905 232.419L233.877 271.921L156.465 250.221L92.2781 64.2832Z" fill="#036C5E"/>
<g style="mix-blend-mode:multiply">
<path d="M92.2781 64.2832L179.078 77.2679C185.177 78.1812 190.87 80.8743 195.445 85.0098C200.02 89.1452 203.272 94.5389 204.794 100.515L240.799 241.874C242.045 247.074 242.069 252.493 240.868 257.704C239.667 262.916 237.274 267.777 233.877 271.908L156.465 250.208L92.2781 64.2832Z" fill="#BCBEC0"/>
</g>
<g style="mix-blend-mode:multiply">
<path d="M184.238 156.916C169.937 133.432 190.032 98.875 169.168 75.8138L92.2781 64.2832L156.465 250.208L206.617 264.262C223.4 229.059 208.497 189.259 184.238 156.916Z" fill="#BCBEC0"/>
</g>
<path d="M308.99 3.251L188.594 0L92.2781 64.2832L173.422 72.5564C183.342 73.5698 193.338 71.6003 202.133 66.9C235.741 48.9378 319.537 3.53606 308.99 3.251Z" fill="#348379"/>
<g style="mix-blend-mode:multiply">
<path d="M380.418 191.741C294.515 216.51 196.569 198.788 122.005 150.404L156.465 250.221L233.877 271.921L362.905 232.419C380.422 227.249 386.911 207.884 380.418 191.741Z" fill="#E6E7E8"/>
</g>
<path d="M265.663 236.957C264.874 237.038 263.833 237.239 262.551 237.603C261.137 238.006 260.229 238.168 259.781 238.105C259.333 238.041 259.15 237.902 259.176 237.656C259.182 237.511 259.422 237.347 259.839 237.133C260.255 236.919 261.139 236.668 262.465 236.291C263.79 235.914 264.787 235.726 265.557 235.746C266.314 235.722 266.945 235.924 267.392 236.322L266.538 233.318C265.996 233.09 265.346 232.988 264.645 233.044C263.901 233.113 262.904 233.301 261.711 233.64C260.429 234.004 259.438 234.382 258.637 234.753C257.879 235.112 257.336 235.553 257.007 236.076C256.666 236.555 256.596 237.148 256.784 237.811C256.973 238.474 257.3 238.953 257.811 239.238C258.322 239.523 258.971 239.624 259.76 239.543C260.549 239.462 261.59 239.262 262.871 238.897C264.153 238.533 265.005 238.338 265.484 238.345C265.964 238.352 266.222 238.422 266.285 238.643C266.323 238.775 266.272 238.933 266.165 239.059C266.013 239.198 265.717 239.33 265.243 239.512C264.77 239.695 264.031 239.952 263.015 240.241C261.645 240.631 260.516 240.857 259.613 240.874C258.667 240.905 258.005 240.759 257.557 240.361L258.411 243.365C259.395 243.802 261.219 243.665 263.826 242.924C265.107 242.56 266.098 242.182 266.9 241.811C267.657 241.452 268.2 241.011 268.529 240.488C268.87 240.009 268.941 239.416 268.752 238.753C268.564 238.09 268.236 237.61 267.725 237.326C267.145 236.966 266.496 236.864 265.663 236.957Z" fill="#EAC632"/>
<path d="M281.637 232.844C281.172 231.21 280.271 230.224 278.978 229.876C277.673 229.483 275.982 229.582 273.937 230.116C273.04 230.323 272.182 230.662 271.349 231.09C270.515 231.518 269.884 231.984 269.441 232.444L270.296 235.449C270.53 234.761 270.979 234.156 271.699 233.665C272.374 233.186 273.176 232.815 274.06 232.564C275.474 232.162 276.464 232.119 277.107 232.366C277.751 232.612 278.167 233.067 278.368 233.774L278.493 234.216C278.077 233.761 277.535 233.533 276.784 233.413C276.046 233.336 275.169 233.442 274.109 233.744C273.137 234.02 272.335 234.391 271.691 234.813C271.059 235.279 270.617 235.739 270.389 236.282C270.162 236.824 270.123 237.36 270.274 237.891C270.425 238.421 270.752 238.901 271.231 239.242C271.71 239.583 272.341 239.786 273.067 239.818C273.849 239.882 274.713 239.732 275.73 239.443C276.702 239.167 277.459 238.808 278.047 238.354C278.59 237.913 278.975 237.422 279.146 236.848C279.247 237.201 279.353 237.744 279.485 238.375L283.064 237.357C282.781 236.531 282.485 235.659 282.177 234.744C281.914 233.816 281.725 233.154 281.637 232.844ZM278.345 236.55C277.922 236.909 277.285 237.186 276.445 237.425C276.18 237.5 276.003 237.551 275.871 237.588C275.328 237.695 274.861 237.732 274.489 237.599C274.117 237.466 273.865 237.251 273.764 236.898C273.664 236.545 273.752 236.185 273.999 235.876C274.245 235.567 274.649 235.309 275.18 235.158C276.051 234.863 276.871 234.725 277.597 234.757C278.322 234.79 278.719 235.011 278.845 235.453C278.958 235.851 278.768 236.191 278.345 236.55Z" fill="#EAC632"/>
<path d="M292.688 225.356C291.881 225.204 290.978 225.221 290.05 225.485C289.078 225.762 288.289 226.177 287.695 226.776C287.102 227.374 286.722 228.055 286.545 228.774C286.4 228.099 286.212 227.436 286.08 226.805L282.325 227.873C282.922 229.47 283.519 231.402 284.172 233.699L284.336 234.274C284.977 236.527 285.498 238.528 285.818 240.156L289.573 239.088C288.976 237.491 288.379 235.559 287.738 233.306C288.859 234.563 290.323 235.007 292.096 234.693C292.374 234.662 292.595 234.599 292.727 234.562C293.611 234.31 294.343 233.863 294.937 233.265C295.531 232.666 295.942 231.928 296.138 231.108C296.335 230.288 296.33 229.43 296.091 228.591C295.827 227.663 295.424 226.918 294.838 226.368C294.233 225.919 293.552 225.54 292.688 225.356ZM292.82 230.858C292.655 231.287 292.434 231.684 292.042 231.986C291.664 232.333 291.158 232.572 290.584 232.735C289.789 232.962 289.076 232.973 288.433 232.726C287.833 232.467 287.405 231.968 287.204 231.261C287.016 230.598 287.13 229.993 287.534 229.4C287.939 228.808 288.57 228.342 289.442 228.046C290.003 227.839 290.514 227.789 291.019 227.884C291.48 227.992 291.908 228.156 292.198 228.504C292.52 228.794 292.721 229.167 292.847 229.609C292.96 230.006 292.94 230.442 292.82 230.858Z" fill="#EAC632"/>
<path d="M300.929 225.114C300.747 224.306 300.552 223.454 300.358 222.602L296.602 223.67C296.898 224.541 297.168 225.324 297.438 226.106C297.709 226.889 297.872 227.463 297.972 227.817L298.186 228.568C298.287 228.921 298.45 229.496 298.619 230.26C298.801 231.067 298.983 231.875 299.178 232.727L302.933 231.659C302.65 230.832 302.367 230.005 302.11 229.267C301.839 228.484 301.689 227.954 301.588 227.601L301.374 226.849C301.274 226.496 301.111 225.922 300.929 225.114Z" fill="#EAC632"/>
<path d="M317.216 227.645C316.619 226.048 316.009 224.073 315.356 221.775L315.193 221.201C314.527 218.859 313.93 216.593 313.585 214.877L310.316 215.806L309.83 215.945L255.044 231.524L255.723 233.91L310.628 218.249C310.955 219.397 311.294 220.59 311.69 221.815C311.136 221.208 310.455 220.829 309.635 220.632C308.815 220.436 307.912 220.454 306.896 220.743C305.968 221.006 305.179 221.422 304.585 222.02C303.979 222.575 303.555 223.268 303.359 224.088C303.162 224.908 303.212 225.754 303.463 226.638C303.702 227.477 304.149 228.21 304.747 228.803C305.346 229.397 306.071 229.764 306.904 230.005C307.724 230.201 308.582 230.196 309.465 229.945C309.598 229.907 309.775 229.857 310.071 229.725C311.7 229.071 312.679 227.98 313.028 226.353C313.273 227.382 313.443 228.145 313.562 228.732L317.229 227.689L317.216 227.645ZM312.026 226.017C311.653 226.553 311.04 226.918 310.201 227.157C309.626 227.32 309.071 227.383 308.566 227.288C308.062 227.192 307.633 227.028 307.312 226.737C306.946 226.459 306.745 226.086 306.619 225.645C306.506 225.247 306.494 224.868 306.601 224.408C306.678 224.004 306.899 223.607 307.19 223.286C307.48 222.964 307.941 222.738 308.427 222.599L308.692 222.524C309.601 222.361 310.415 222.368 311.027 222.672C311.682 222.963 312.098 223.418 312.287 224.081C312.5 224.832 312.443 225.469 312.026 226.017Z" fill="#EAC632"/>
<path d="M348.482 69.8018C297.199 86.7774 215.742 94.0065 214.919 94.0801L215.105 96.2613C215.934 96.1877 297.497 88.965 349.036 71.9189L348.482 69.8018Z" fill="black"/>
<g style="mix-blend-mode:multiply">
<path d="M220.748 94.676C218.827 94.849 216.914 95.0134 215.012 95.1692C214.856 93.2774 214.7 91.3844 214.544 89.4904C216.445 89.3324 218.342 89.1691 220.236 89.0004C220.409 90.8858 220.58 92.7777 220.748 94.676Z" fill="#BCBEC0"/>
<path d="M221.363 101.492C219.442 101.665 217.511 101.83 215.572 101.988C215.417 100.094 215.261 98.2013 215.105 96.3094C217.027 96.1493 218.942 95.9849 220.851 95.8162C221.022 97.7102 221.192 99.602 221.363 101.492Z" fill="#BCBEC0"/>
<path d="M227.58 94.029C225.671 94.219 223.761 94.4016 221.85 94.5767L221.331 88.9011C223.227 88.7238 225.123 88.5423 227.017 88.3566C227.2 90.2442 227.388 92.135 227.58 94.029Z" fill="#BCBEC0"/>
<path d="M228.253 100.838C226.331 101.028 224.403 101.212 222.468 101.389L221.949 95.7137C223.871 95.5386 225.783 95.3561 227.686 95.166L228.253 100.838Z" fill="#BCBEC0"/>
<path d="M234.406 93.3147C232.497 93.5282 230.589 93.7289 228.682 93.9169C228.49 92.0271 228.299 90.1374 228.109 88.2476C230.002 88.0523 231.895 87.8569 233.787 87.6487C233.992 89.5384 234.198 91.4271 234.406 93.3147Z" fill="#BCBEC0"/>
<path d="M235.149 100.118C233.227 100.331 231.305 100.534 229.383 100.726C229.191 98.8367 229 96.9459 228.81 95.0541C230.732 94.8576 232.643 94.6569 234.543 94.4519C234.74 96.3331 234.942 98.2218 235.149 100.118Z" fill="#BCBEC0"/>
<path d="M241.222 92.5396C239.317 92.7532 237.411 92.9667 235.504 93.1802C235.291 91.2926 235.077 89.405 234.864 87.5174C236.756 87.3039 238.646 87.0904 240.536 86.8768L241.222 92.5396Z" fill="#BCBEC0"/>
<path d="M242.026 99.333C240.104 99.5615 238.182 99.7825 236.26 99.9961C236.047 98.1063 235.833 96.2176 235.62 94.33C237.541 94.1165 239.45 93.903 241.347 93.6895L242.026 99.333Z" fill="#BCBEC0"/>
<path d="M248.028 91.6973C246.127 91.9407 244.225 92.1777 242.32 92.4083L241.638 86.7487C243.528 86.5181 245.416 86.2832 247.304 86.0441C247.545 87.9274 247.787 89.8118 248.028 91.6973Z" fill="#BCBEC0"/>
<path d="M248.902 98.4811C246.98 98.7267 245.059 98.9669 243.137 99.2018L242.455 93.5421C244.364 93.3115 246.27 93.0734 248.175 92.8279C248.418 94.7112 248.661 96.5956 248.902 98.4811Z" fill="#BCBEC0"/>
<path d="M254.837 90.7907C252.938 91.0502 251.039 91.3096 249.136 91.5562C248.891 89.6708 248.645 87.7864 248.399 85.903C250.287 85.6575 252.174 85.4044 254.059 85.1439L254.837 90.7907Z" fill="#BCBEC0"/>
<path d="M255.766 97.5682C253.844 97.8308 251.923 98.0881 250.001 98.3401C249.757 96.4568 249.513 94.5724 249.267 92.6869C251.172 92.4413 253.076 92.1862 254.978 91.9214C255.243 93.8026 255.506 95.6849 255.766 97.5682Z" fill="#BCBEC0"/>
<path d="M261.618 89.8171C259.722 90.099 257.824 90.3723 255.923 90.6371L255.135 84.9935C257.019 84.7308 258.901 84.4597 260.782 84.1799L261.618 89.8171Z" fill="#BCBEC0"/>
<path d="M262.617 96.5881C260.696 96.87 258.78 97.1455 256.871 97.4145C256.609 95.5312 256.345 93.6489 256.08 91.7677C257.983 91.5051 259.884 91.2317 261.785 90.9478C262.064 92.829 262.342 94.7091 262.617 96.5881Z" fill="#BCBEC0"/>
<path d="M268.395 88.7826C266.503 89.0837 264.608 89.3752 262.71 89.657C262.432 87.7758 262.152 85.8968 261.868 84.0199C263.751 83.738 265.631 83.4487 267.508 83.1519C267.816 85.0309 268.111 86.9079 268.395 88.7826Z" fill="#BCBEC0"/>
<path d="M269.462 95.5408C267.54 95.8419 265.638 96.1398 263.722 96.4216C263.44 94.5426 263.16 92.6635 262.88 90.7844C264.78 90.5026 266.679 90.2111 268.575 89.91C268.869 91.787 269.165 93.6639 269.462 95.5408Z" fill="#BCBEC0"/>
<path d="M275.166 87.6839C273.272 88.0021 271.379 88.3106 269.487 88.6096L268.61 82.982C270.487 82.6809 272.364 82.3745 274.241 82.0627L275.166 87.6839Z" fill="#BCBEC0"/>
<path d="M276.297 94.4326C274.388 94.7529 272.478 95.0646 270.567 95.3679C270.27 93.4909 269.971 91.614 269.67 89.7371C271.566 89.436 273.461 89.1264 275.355 88.8082L276.297 94.4326Z" fill="#BCBEC0"/>
<path d="M281.925 86.5181C280.035 86.8554 278.145 87.1832 276.255 87.5014C275.939 85.6244 275.619 83.7507 275.294 81.8802C277.167 81.562 279.041 81.2417 280.916 80.9193C281.253 82.7834 281.589 84.6497 281.925 86.5181Z" fill="#BCBEC0"/>
<path d="M283.116 93.2571C281.209 93.5923 279.303 93.9222 277.396 94.2468L276.435 88.6256C278.331 88.3053 280.224 87.9786 282.114 87.6455C282.451 89.516 282.785 91.3866 283.116 93.2571Z" fill="#BCBEC0"/>
<path d="M288.67 85.2913C286.787 85.6436 284.9 85.9885 283.01 86.3258C282.677 84.4553 282.343 82.5848 282.008 80.7143C283.883 80.379 285.754 80.0374 287.623 79.6893L288.67 85.2913Z" fill="#BCBEC0"/>
<path d="M289.926 92.0176C288.023 92.3742 286.119 92.7223 284.215 93.0618C283.882 91.1891 283.547 89.3186 283.212 87.4502C285.102 87.1107 286.991 86.7648 288.878 86.4125C289.231 88.283 289.58 90.1514 289.926 92.0176Z" fill="#BCBEC0"/>
<path d="M295.406 84.0006C293.522 84.37 291.639 84.7319 289.756 85.0864C289.403 83.218 289.051 81.3507 288.699 79.4844C290.569 79.1321 292.438 78.7733 294.304 78.4082C294.671 80.2723 295.038 82.1364 295.406 84.0006Z" fill="#BCBEC0"/>
<path d="M296.725 90.714C294.825 91.0855 292.925 91.4506 291.024 91.8094C290.672 89.941 290.32 88.0737 289.967 86.2074C291.854 85.8519 293.74 85.4932 295.624 85.1184C295.993 86.9868 296.36 88.852 296.725 90.714Z" fill="#BCBEC0"/>
<path d="M302.126 82.6426C300.249 83.0333 298.37 83.4145 296.488 83.786C296.121 81.9219 295.752 80.0578 295.38 78.1937C297.244 77.8221 299.108 77.4442 300.973 77.0598L302.126 82.6426Z" fill="#BCBEC0"/>
<path d="M303.522 89.3431C301.626 89.7381 299.729 90.1225 297.83 90.4962C297.459 88.6321 297.089 86.7679 296.722 84.9038C298.606 84.5302 300.488 84.149 302.369 83.7604L303.522 89.3431Z" fill="#BCBEC0"/>
<path d="M308.836 81.2236C306.963 81.6293 305.087 82.0276 303.208 82.4183C302.819 80.5563 302.433 78.6965 302.049 76.8388C303.908 76.4502 305.768 76.0551 307.628 75.6537C308.032 77.5071 308.434 79.3638 308.836 81.2236Z" fill="#BCBEC0"/>
<path d="M310.283 87.9114C308.394 88.3213 306.501 88.7228 304.605 89.1157L303.442 83.5361C305.321 83.1454 307.2 82.7471 309.079 82.3414C309.481 84.1949 309.882 86.0515 310.283 87.9114Z" fill="#BCBEC0"/>
<path d="M315.533 79.7406C313.663 80.1677 311.791 80.584 309.918 80.9897C309.513 79.132 309.107 77.2754 308.701 75.4198C310.559 75.0141 312.417 74.601 314.274 74.1803L315.533 79.7406Z" fill="#BCBEC0"/>
<path d="M317.045 86.4125C315.155 86.8395 313.266 87.2602 311.376 87.6744C310.97 85.8167 310.565 83.9601 310.162 82.1045C312.035 81.6945 313.909 81.2781 315.786 80.8553L317.045 86.4125Z" fill="#BCBEC0"/>
<path d="M322.214 78.1937C320.35 78.6357 318.483 79.0691 316.612 79.494L315.331 73.9369C317.185 73.5099 319.038 73.0828 320.892 72.6558C321.336 74.4985 321.777 76.3445 322.214 78.1937Z" fill="#BCBEC0"/>
<path d="M323.79 84.8494C321.907 85.2978 320.022 85.7366 318.134 86.1658L316.853 80.6087C318.725 80.1816 320.596 79.746 322.464 79.3019C322.913 81.1532 323.355 83.0024 323.79 84.8494Z" fill="#BCBEC0"/>
<path d="M328.883 76.5793C327.021 77.0405 325.157 77.4932 323.291 77.9373C322.851 76.0903 322.411 74.2422 321.971 72.393C323.822 71.951 325.671 71.5015 327.518 71.0446L328.883 76.5793Z" fill="#BCBEC0"/>
<path d="M330.523 83.2222C328.644 83.6877 326.762 84.1446 324.876 84.5931C324.436 82.746 323.997 80.8979 323.557 79.0488C325.425 78.6046 327.292 78.1509 329.159 77.6875L330.523 83.2222Z" fill="#BCBEC0"/>
<path d="M335.551 74.9042C333.694 75.3825 331.834 75.8533 329.972 76.3167L328.598 70.782C330.443 70.325 332.288 69.8595 334.133 69.3855C334.598 71.224 335.071 73.0635 335.551 74.9042Z" fill="#BCBEC0"/>
<path d="M337.239 81.5342C335.363 82.0147 333.485 82.4887 331.605 82.9563C331.146 81.1114 330.689 79.2676 330.235 77.4248C332.099 76.9615 333.962 76.4906 335.824 76.0123C336.294 77.8508 336.765 79.6914 337.239 81.5342Z" fill="#BCBEC0"/>
<path d="M342.178 73.1683C340.325 73.6615 338.468 74.1484 336.608 74.6288C336.134 72.7903 335.659 70.9518 335.183 69.1133C337.028 68.635 338.87 68.1503 340.708 67.6592L342.178 73.1683Z" fill="#BCBEC0"/>
<path d="M343.94 79.7791C342.069 80.2787 340.197 80.7709 338.322 81.2556C337.844 79.4171 337.369 77.5776 336.897 75.7369C338.754 75.2565 340.613 74.7686 342.473 74.2732C342.964 76.1053 343.453 77.9406 343.94 79.7791Z" fill="#BCBEC0"/>
<path d="M348.802 71.3649C346.951 71.8816 345.099 72.3866 343.245 72.8799L341.769 67.3772C343.607 66.8818 345.443 66.38 347.278 65.8718C347.788 67.7039 348.296 69.5349 348.802 71.3649Z" fill="#BCBEC0"/>
<path d="M350.628 77.9597C348.762 78.4743 346.892 78.9847 345.02 79.4907C344.528 77.6544 344.036 75.8191 343.543 73.9849C345.396 73.4852 347.251 72.9791 349.106 72.4667C349.613 74.2988 350.12 76.1298 350.628 77.9597Z" fill="#BCBEC0"/>
</g>
<path d="M221.572 93.7791C219.663 93.9521 217.75 94.1165 215.835 94.2724C215.681 92.3805 215.526 90.4876 215.371 88.5936C217.271 88.4356 219.168 88.2722 221.062 88.1035L221.572 93.7791Z" fill="#D1D3D4"/>
<path d="M222.187 100.595C220.265 100.768 218.334 100.933 216.396 101.092C216.242 99.1996 216.087 97.3067 215.931 95.4127C217.853 95.2547 219.767 95.0903 221.674 94.9194C221.847 96.8113 222.018 98.7032 222.187 100.595Z" fill="#D1D3D4"/>
<path d="M228.407 93.1321C226.485 93.3201 224.574 93.5026 222.673 93.6799L222.167 88.0042C224.063 87.8281 225.96 87.6519 227.852 87.4597L228.407 93.1321Z" fill="#D1D3D4"/>
<path d="M229.082 99.9415C227.16 100.129 225.232 100.313 223.298 100.492L222.779 94.8168C224.701 94.6395 226.614 94.4569 228.518 94.269C228.709 96.1588 228.896 98.0496 229.082 99.9415Z" fill="#D1D3D4"/>
<path d="M235.229 92.421C233.324 92.6346 231.416 92.8342 229.505 93.02C229.315 91.1302 229.124 89.2405 228.932 87.3508C230.825 87.1554 232.718 86.96 234.611 86.7518C234.816 88.6416 235.022 90.5313 235.229 92.421Z" fill="#D1D3D4"/>
<path d="M235.972 99.2209C234.05 99.4345 232.128 99.6373 230.207 99.8295C230.019 97.9398 229.828 96.049 229.633 94.1571C231.555 93.9628 233.466 93.7621 235.367 93.5549C235.563 95.4447 235.765 97.3333 235.972 99.2209Z" fill="#D1D3D4"/>
<path d="M242.045 91.6427C240.142 91.8669 238.237 92.0857 236.331 92.2993C236.117 90.4095 235.903 88.5209 235.69 86.6333C237.58 86.4197 239.469 86.2062 241.359 85.9927L242.045 91.6427Z" fill="#D1D3D4"/>
<path d="M242.855 98.4361C240.933 98.6667 239.012 98.8877 237.09 99.0991C236.876 97.2093 236.663 95.3207 236.449 93.4331C238.358 93.2195 240.267 93.006 242.176 92.7925L242.855 98.4361Z" fill="#D1D3D4"/>
<path d="M248.854 90.8004C246.952 91.0438 245.048 91.2809 243.143 91.5115C242.915 89.6239 242.689 87.7373 242.464 85.8519C244.352 85.6234 246.24 85.3885 248.127 85.1472C248.371 87.0391 248.613 88.9235 248.854 90.8004Z" fill="#D1D3D4"/>
<path d="M249.712 97.5939C247.791 97.8394 245.869 98.0786 243.947 98.3113L243.265 92.6517C245.17 92.4211 247.075 92.1841 248.982 91.9407C249.236 93.8197 249.48 95.7041 249.712 97.5939Z" fill="#D1D3D4"/>
<path d="M255.654 89.9068C253.755 90.1662 251.852 90.4257 249.95 90.6723C249.706 88.7868 249.462 86.9024 249.216 85.0191C251.102 84.7714 252.987 84.5184 254.872 84.26C255.133 86.1348 255.394 88.0171 255.654 89.9068Z" fill="#D1D3D4"/>
<path d="M256.589 96.6715C254.668 96.9384 252.746 97.1957 250.824 97.4434C250.578 95.56 250.333 93.6756 250.087 91.7902C251.992 91.5446 253.896 91.2894 255.798 91.0247C256.067 92.908 256.331 94.7903 256.589 96.6715Z" fill="#D1D3D4"/>
<path d="M262.441 88.9235C260.545 89.2011 258.648 89.4733 256.749 89.7402C256.485 87.859 256.221 85.9778 255.958 84.0966C257.846 83.834 259.729 83.5628 261.608 83.2831C261.888 85.1643 262.166 87.0444 262.441 88.9235Z" fill="#D1D3D4"/>
<path d="M263.443 95.6912C261.522 95.9731 259.605 96.2486 257.694 96.5176L256.906 90.8676C258.809 90.6028 260.71 90.3284 262.611 90.0444C262.886 91.9299 263.164 93.8122 263.443 95.6912Z" fill="#D1D3D4"/>
<path d="M269.222 87.8888C267.328 88.1857 265.433 88.476 263.536 88.76C263.255 86.881 262.974 85.0019 262.694 83.1229C264.575 82.8453 266.455 82.557 268.334 82.2581C268.629 84.135 268.925 86.0119 269.222 87.8888Z" fill="#D1D3D4"/>
<path d="M270.285 94.6471C268.363 94.945 266.461 95.2429 264.546 95.5248C264.268 93.6478 263.987 91.7698 263.703 89.8908C265.601 89.6046 267.5 89.3132 269.398 89.0164C269.697 90.8911 269.993 92.7681 270.285 94.6471Z" fill="#D1D3D4"/>
<path d="M275.977 86.7872C274.087 87.1053 272.195 87.4139 270.301 87.7128C270.004 85.8402 269.705 83.9643 269.404 82.0853C271.285 81.7842 273.162 81.4778 275.035 81.166L275.977 86.7872Z" fill="#D1D3D4"/>
<path d="M277.12 93.5358C275.211 93.856 273.301 94.1678 271.39 94.471C271.089 92.5941 270.79 90.7171 270.493 88.8402C272.389 88.5391 274.284 88.2295 276.178 87.9114L277.12 93.5358Z" fill="#D1D3D4"/>
<path d="M282.748 85.6244C280.86 85.9575 278.971 86.2842 277.082 86.6045L276.121 80.9833C277.998 80.6652 279.873 80.3449 281.745 80.0225C282.083 81.8887 282.417 83.756 282.748 85.6244Z" fill="#D1D3D4"/>
<path d="M283.942 92.3602C282.038 92.6976 280.13 93.0275 278.219 93.3499C277.905 91.4751 277.585 89.6014 277.258 87.7288C279.152 87.4085 281.044 87.0818 282.933 86.7487C283.275 88.6192 283.611 90.4897 283.942 92.3602Z" fill="#D1D3D4"/>
<path d="M289.493 84.3944C287.61 84.7468 285.724 85.0916 283.837 85.429C283.502 83.5585 283.167 81.6879 282.834 79.8174C284.705 79.4822 286.575 79.1405 288.446 78.7925L289.493 84.3944Z" fill="#D1D3D4"/>
<path d="M290.752 91.1206C288.849 91.4751 286.946 91.8231 285.041 92.1648C284.704 90.2943 284.37 88.4238 284.039 86.5532C285.928 86.2137 287.817 85.8689 289.705 85.5187L290.752 91.1206Z" fill="#D1D3D4"/>
<path d="M296.229 83.1037C294.348 83.471 292.465 83.8329 290.582 84.1895L289.525 78.5907C291.394 78.2341 293.261 77.8744 295.127 77.5114C295.497 79.3691 295.864 81.2332 296.229 83.1037Z" fill="#D1D3D4"/>
<path d="M297.548 89.8171C295.652 90.1886 293.752 90.5538 291.847 90.9125C291.495 89.0441 291.144 87.1778 290.793 85.3137C292.68 84.955 294.567 84.5963 296.45 84.2247C296.815 86.091 297.181 87.9551 297.548 89.8171Z" fill="#D1D3D4"/>
<path d="M302.952 81.7457C301.075 82.1364 299.196 82.5176 297.315 82.8891C296.943 81.025 296.573 79.1609 296.203 77.2968C298.07 76.9274 299.935 76.5505 301.799 76.1661L302.952 81.7457Z" fill="#D1D3D4"/>
<path d="M304.335 88.4462C302.439 88.8391 300.542 89.2235 298.644 89.5993C298.274 87.7394 297.905 85.8764 297.536 84.0102C299.419 83.6322 301.301 83.2511 303.182 82.8667L304.335 88.4462Z" fill="#D1D3D4"/>
<path d="M309.662 80.3268C307.787 80.7325 305.911 81.1307 304.034 81.5215L302.881 75.9419C304.741 75.5554 306.602 75.1604 308.464 74.7568C308.861 76.6145 309.261 78.4712 309.662 80.3268Z" fill="#D1D3D4"/>
<path d="M311.11 87.0242C309.216 87.4341 307.322 87.8366 305.428 88.2317C305.043 86.3697 304.657 84.5088 304.268 82.6489C306.15 82.2582 308.028 81.8599 309.902 81.4542C310.306 83.3055 310.708 85.1622 311.11 87.0242Z" fill="#D1D3D4"/>
<path d="M316.356 78.8438C314.486 79.2708 312.614 79.6872 310.742 80.0929C310.338 78.2352 309.933 76.3786 309.528 74.523C311.385 74.1173 313.242 73.7041 315.098 73.2834L316.356 78.8438Z" fill="#D1D3D4"/>
<path d="M317.868 85.5156C315.983 85.9427 314.093 86.3633 312.199 86.7776C311.795 84.9199 311.391 83.0632 310.985 81.2077C312.862 80.8019 314.737 80.3856 316.609 79.9585L317.868 85.5156Z" fill="#D1D3D4"/>
<path d="M323.041 77.2968C321.172 77.7388 319.304 78.1723 317.436 78.5972L316.155 73.0401C318.008 72.613 319.861 72.186 321.715 71.7589C322.163 73.6081 322.605 75.454 323.041 77.2968Z" fill="#D1D3D4"/>
<path d="M324.617 83.9525C322.731 84.4009 320.845 84.8397 318.957 85.2689L317.676 79.7118C319.548 79.2847 321.42 78.8502 323.291 78.4082C323.739 80.2574 324.181 82.1055 324.617 83.9525Z" fill="#D1D3D4"/>
<path d="M329.709 75.6825C327.845 76.1437 325.981 76.5964 324.117 77.0405C323.675 75.1914 323.234 73.3433 322.794 71.4962C324.645 71.0542 326.496 70.6058 328.345 70.151L329.709 75.6825Z" fill="#D1D3D4"/>
<path d="M331.346 82.3254C329.467 82.7888 327.586 83.2457 325.702 83.6963C325.26 81.8493 324.82 80.0012 324.38 78.152C326.25 77.7057 328.117 77.253 329.982 76.7939L331.346 82.3254Z" fill="#D1D3D4"/>
<path d="M336.362 74.0105C334.504 74.4888 332.644 74.9586 330.782 75.4198L329.408 69.8851C331.255 69.426 333.101 68.9605 334.946 68.4886C335.418 70.3314 335.89 72.172 336.362 74.0105Z" fill="#D1D3D4"/>
<path d="M338.066 80.6374C336.189 81.1178 334.311 81.5918 332.432 82.0595L331.067 76.528C332.931 76.0625 334.795 75.5917 336.657 75.1155C337.124 76.954 337.594 78.7946 338.066 80.6374Z" fill="#D1D3D4"/>
<path d="M343.002 72.2714C341.147 72.7678 339.293 73.2515 337.435 73.7351C336.957 71.8945 336.481 70.0549 336.01 68.2164C337.852 67.7381 339.693 67.2545 341.531 66.7655L343.002 72.2714Z" fill="#D1D3D4"/>
<path d="M344.766 78.8821C342.896 79.3818 341.022 79.8739 339.145 80.3587L337.72 74.8528C339.58 74.3723 341.439 73.8844 343.296 73.389L344.766 78.8821Z" fill="#D1D3D4"/>
<path d="M349.625 70.4712C347.778 70.9837 345.927 71.4887 344.071 71.9862L342.598 66.4804C344.436 65.9839 346.275 65.4874 348.11 64.975C348.612 66.8071 349.117 68.6392 349.625 70.4712Z" fill="#D1D3D4"/>
<path d="M351.454 77.063C349.584 77.5798 347.714 78.0901 345.846 78.594L344.366 73.0881C346.224 72.5885 348.078 72.0824 349.929 71.5699C350.44 73.402 350.948 75.2331 351.454 77.063Z" fill="#D1D3D4"/>
<g style="mix-blend-mode:multiply">
<path d="M228.339 109.262L219.211 95.6944C218.734 94.9847 218.019 94.4685 217.195 94.239C216.371 94.0094 215.492 94.0814 214.717 94.4421C213.941 94.8028 213.32 95.4285 212.965 96.2065C212.61 96.9845 212.544 97.8637 212.779 98.686L217.263 114.409C218.865 119.089 224.438 114.46 227.125 113.576C227.512 113.398 227.856 113.138 228.132 112.814C228.409 112.489 228.612 112.109 228.727 111.699C228.842 111.289 228.867 110.859 228.8 110.438C228.734 110.017 228.576 109.616 228.339 109.262ZM223.384 113.074C218.064 115.476 215.966 110.963 221.229 108.442C226.549 106.04 228.647 110.553 223.384 113.074Z" fill="#A7A9AC"/>
</g>
<g style="mix-blend-mode:multiply">
<path d="M218.711 105.922L217.638 96.1398C217.443 93.7536 213.686 93.5518 213.244 95.9092L211.155 105.518C211.105 105.772 211.11 106.035 211.171 106.287C211.232 106.539 211.347 106.775 211.508 106.979C211.669 107.182 211.873 107.348 212.104 107.464C212.336 107.581 212.591 107.646 212.85 107.654C214.48 107.558 218.964 108.859 218.711 105.922Z" fill="#D1D3D4"/>
</g>
<g style="mix-blend-mode:multiply">
<path d="M212.094 106.293L214.185 96.6842C214.442 95.3581 216.03 94.5958 217.267 95.166C216.286 93.6061 213.574 94.0642 213.244 95.9091L211.155 105.518C211.069 105.937 211.138 106.372 211.35 106.744C211.561 107.115 211.901 107.397 212.305 107.536C212.079 107.164 212.004 106.719 212.094 106.293Z" fill="#D1D3D4"/>
</g>
<path d="M221.328 112.802L219.624 96.5402C219.534 95.6906 219.144 94.9011 218.524 94.3133C217.904 93.7255 217.095 93.3781 216.242 93.3333C215.389 93.2885 214.547 93.5494 213.869 94.0691C213.191 94.5888 212.721 95.3332 212.542 96.1686L209.147 112.164C208.359 117.042 215.476 115.578 218.247 116.049C218.672 116.072 219.096 116.001 219.492 115.844C219.887 115.686 220.243 115.444 220.536 115.136C220.829 114.827 221.051 114.458 221.188 114.056C221.325 113.653 221.373 113.225 221.328 112.802ZM215.166 113.849C209.339 113.474 209.602 108.506 215.435 108.747C221.258 109.125 220.998 114.086 215.166 113.849Z" fill="black"/>
<path d="M220.684 112.542L218.964 96.2775C218.874 95.4279 218.484 94.6384 217.864 94.0506C217.244 93.4628 216.435 93.1154 215.582 93.0706C214.729 93.0258 213.888 93.2867 213.21 93.8064C212.532 94.3261 212.061 95.0705 211.883 95.9059L208.487 111.901C207.7 116.78 214.82 115.316 217.587 115.787C218.013 115.811 218.439 115.743 218.836 115.586C219.233 115.43 219.591 115.189 219.886 114.88C220.181 114.572 220.405 114.203 220.542 113.799C220.68 113.395 220.729 112.966 220.684 112.542ZM214.519 113.586C208.696 113.215 208.955 108.244 214.788 108.484C220.614 108.855 220.351 113.826 214.519 113.586Z" fill="#E6E7E8"/>
<path d="M166.436 360.047C171.298 368.935 131.658 386.791 128.157 377.551C124.564 367.096 159.578 346.662 166.436 360.047Z" fill="#694253"/>
<g style="mix-blend-mode:multiply">
<path d="M166.436 360.047C166.037 359.248 165.462 358.551 164.754 358.006C168.716 366.814 134.461 382.089 127.991 377.003C130.729 387.544 171.381 368.858 166.436 360.047Z" fill="#694253"/>
</g>
<g style="mix-blend-mode:multiply">
<path d="M166.436 360.047C162.384 351.399 142.843 357.379 135.258 365.203C142.827 363.192 150.543 366.629 154.476 373.595C162.82 369.082 168.303 363.941 166.436 360.047Z" fill="#D1D3D4"/>
</g>
<path opacity="0.5" d="M137.574 368.422C138.906 370.203 131.338 375.469 130.13 373.611C128.798 371.83 136.366 366.558 137.574 368.422Z" fill="white"/>
<path d="M200.333 246.393C191.275 244.193 141.152 246.111 141.536 255.39C142.177 270.953 145.825 274.669 149.338 277.75C130.688 307.118 127.152 343.984 126.876 359.079C126.767 365.011 170.379 360.543 168.716 355.598C164.072 341.783 157.307 302.108 200.333 269.304C206.992 249.452 201.217 246.608 200.333 246.393Z" fill="#301D0A"/>
<path d="M141.453 323.684C152.023 324.901 155.136 316.054 162.439 300.494C171.551 281.072 189.632 272.872 164.143 271.93C156.513 271.645 149.14 277.58 149.332 277.75C141.847 289.537 136.799 302.528 133.417 314.837C133.718 320.013 135.838 323.037 141.453 323.684Z" fill="#603913"/>
<path d="M138.987 255.554C146.405 229.546 97.803 215.562 99.0746 184.448C101.124 134.437 209.054 148.216 205.288 249.119C205.288 249.125 156.507 273.48 138.987 255.554Z" fill="#035F52"/>
<g style="mix-blend-mode:multiply">
<path d="M99.0747 184.455C97.7935 215.562 146.405 229.546 138.987 255.56C141.132 257.698 143.735 259.321 146.6 260.304C144.55 230.516 158.4 197.455 195.458 197.974C169.363 145.26 100.705 144.677 99.0747 184.455Z" fill="#D1D3D4"/>
</g>
<g style="mix-blend-mode:multiply">
<path d="M154.454 160.25C110.199 143.076 79.9979 182.792 113.18 213.861C137.401 210.658 148.112 183.961 154.454 160.25Z" fill="#D1D3D4"/>
</g>
<g style="mix-blend-mode:multiply">
<path d="M194.34 137.557C198.459 139.367 198.123 143.175 197.719 147.656C195.599 171.079 162.118 164.286 156.401 176.518C154.223 181.168 206.422 219.674 222.327 231.58C223.061 232.129 223.659 232.838 224.077 233.654C224.496 234.469 224.723 235.368 224.742 236.284C224.761 237.2 224.572 238.109 224.188 238.941C223.804 239.773 223.236 240.506 222.526 241.086C218.548 245.093 207.613 246.454 205.387 244.837C192.511 235.468 154.934 194.723 154.057 178.276C153.493 167.658 195.958 161.457 187.646 139.159C186.746 136.76 191.999 136.529 194.34 137.557Z" fill="#A7A9AC"/>
</g>
<path d="M193.341 135.709C194.276 136.118 195.085 136.771 195.682 137.599C196.28 138.428 196.644 139.401 196.736 140.418C196.829 141.435 196.647 142.459 196.209 143.381C195.771 144.304 195.094 145.092 194.247 145.664C182.617 153.521 156.045 172.367 156.805 176.732C157.679 181.79 205.413 217.82 221.318 229.725C222.051 230.275 222.65 230.984 223.068 231.799C223.487 232.614 223.714 233.514 223.733 234.43C223.752 235.346 223.563 236.254 223.179 237.086C222.795 237.918 222.226 238.652 221.517 239.231C220.487 240.078 219.205 240.56 217.872 240.601C216.539 240.641 215.23 240.238 214.15 239.456C201.274 230.087 153.461 194.012 153.461 177.539C153.461 173.411 179.622 145.862 186.646 137.304C187.436 136.345 188.517 135.67 189.726 135.383C190.934 135.095 192.203 135.209 193.341 135.709Z" fill="#FFDE17"/>
<path d="M194.692 140.715C194.692 144.632 188.719 144.632 188.703 140.715C188.687 136.798 194.676 136.801 194.692 140.715Z" fill="#231F20"/>
<path d="M220.998 234.309C220.998 238.226 215.028 238.226 215.009 234.309C214.989 230.391 220.982 230.391 220.998 234.309Z" fill="#231F20"/>
<g style="mix-blend-mode:multiply">
<path d="M138.631 242.229C193.19 274.496 206.156 195.386 171.907 174.968C171.907 174.958 183.213 234.866 138.631 242.229Z" fill="#BCBEC0"/>
</g>
<path d="M155.962 208.8C146.69 236.685 116.95 229.084 116.95 229.084L121.435 240.862C160.559 250.31 178.127 234.802 181.275 212.922C174.443 208.067 164.533 206.693 155.962 208.8Z" fill="#FEDC9B"/>
<g style="mix-blend-mode:multiply">
<path d="M177.24 210.658C173.175 230.791 155.994 244.577 119.743 236.425L121.425 240.855C160.549 250.304 178.117 234.795 181.266 212.916C179.996 212.04 178.649 211.284 177.24 210.658Z" fill="#FDDFD8"/>
</g>
<g style="mix-blend-mode:multiply">
<path d="M177.938 224.431C179.604 220.784 180.726 216.912 181.266 212.938C174.427 208.083 164.533 206.709 155.962 208.816C155.152 211.285 154.079 213.659 152.759 215.898C161.724 214.822 172.265 217.663 177.938 224.431Z" fill="#D1D3D4"/>
</g>
<path d="M180.007 219.098C185 221.855 183.043 186.719 180.183 182.418C177.127 172.514 155.729 167.043 156.645 179.135C157.711 193.173 156.356 203.314 153.522 211.283C153.454 211.468 153.435 211.668 153.467 211.862C153.5 212.057 153.582 212.24 153.706 212.393C153.831 212.547 153.993 212.665 154.176 212.737C154.36 212.809 154.559 212.832 154.755 212.804C164.713 211.456 173.197 212.042 180.007 219.098Z" fill="#035F52"/>
<g style="mix-blend-mode:multiply">
<path d="M180.186 182.418C178.988 178.545 174.985 175.355 170.609 173.625C176.599 186.636 176.391 202.305 175.129 215.264C176.927 216.309 178.569 217.603 180.007 219.107C185.013 221.843 183.043 186.729 180.186 182.418Z" fill="#D1D3D4"/>
</g>
<path d="M45.7809 357.769C45.3332 357.768 44.8914 357.668 44.4868 357.476C44.0822 357.284 43.7249 357.006 43.4404 356.66C43.1559 356.314 42.9512 355.91 42.8409 355.476C42.7306 355.042 42.7174 354.59 42.8022 354.15L52.2605 306.173C52.5808 299.661 65.3541 294.072 65.841 301.439C64.989 306.356 59.5248 301.9 58.2148 307.345L48.7565 355.325C48.6195 356.014 48.2481 356.634 47.7056 357.079C47.1631 357.525 46.483 357.769 45.7809 357.769Z" fill="#071D2F"/>
<path d="M58.8393 321.666C20.5321 308.78 -1.65154 376.145 36.2521 389.165C74.5562 402.053 96.7366 334.686 58.8393 321.666ZM74.3544 364.108C60.681 402.671 11.3012 385.385 23.6357 346.722C37.3059 308.159 86.6826 325.448 74.3544 364.108Z" fill="black"/>
<path d="M62.1415 320.631C22.3801 307.313 -1.09109 376.622 38.5806 390.203C78.3548 403.517 101.81 334.212 62.1415 320.631ZM76.5003 363.791C63.2914 400.811 15.039 384.463 27.0468 347.04C40.2558 310.02 88.5114 326.368 76.5003 363.791Z" fill="url(#paint7_linear_18_1561)"/>
<g style="mix-blend-mode:multiply">
<path d="M62.1415 320.631C22.3801 307.313 -1.09109 376.622 38.5806 390.203C78.3548 403.517 101.81 334.212 62.1415 320.631ZM76.5003 363.791C63.2914 400.811 15.039 384.463 27.0468 347.04C40.2558 310.02 88.5114 326.368 76.5003 363.791Z" fill="#FFF200"/>
</g>
<path d="M54.0765 344.291C41.0405 344.221 38.5326 367.109 52.6223 367.391C65.7096 367.378 68.4257 344.65 54.0765 344.291Z" fill="black"/>
<path d="M63.3777 356.421C62.8332 365.828 49.605 366.766 49.9029 356.568C50.3865 346.908 63.7717 345.928 63.3777 356.421Z" fill="url(#paint8_linear_18_1561)"/>
<path d="M62.8012 356.44C62.4297 363.243 52.8561 363.922 53.0899 356.549C53.455 349.605 63.0671 348.904 62.8012 356.44Z" fill="url(#paint9_linear_18_1561)"/>
<path d="M64.3805 308.908C11.7304 291.33 -19.7802 382.518 33.0684 400.564C85.7217 418.142 117.229 326.95 64.3805 308.908ZM85.8883 366.539C67.2343 418.584 -1.47854 395.852 15.5772 342.94C34.2311 290.888 102.947 313.62 85.8883 366.539Z" fill="#231F20"/>
<path d="M15.5771 342.94C24.2956 316.832 53.9004 304.184 74.332 320.269C73.6536 317.447 72.662 314.71 71.3757 312.108C37.6999 291.346 -3.89359 334.119 6.81066 370.536C9.62516 371.375 12.4989 372 15.4074 372.407C12.2973 363.499 12.1051 353.099 15.5771 342.94Z" fill="#414042"/>
<path d="M9.67725 337.677C11.8559 338.833 14.1543 339.747 16.5316 340.403C22.5371 325.577 35.1695 315.532 48.7756 313.514C45.5913 311.577 42.1054 310.186 38.4621 309.398C26.2045 313.793 15.4426 323.908 9.67725 337.677Z" fill="#808285"/>
<path d="M64.3291 312.063C14.3151 295.321 -15.2641 382.416 34.6762 399.504C84.687 416.249 114.269 329.167 64.3291 312.063ZM40.3262 388.521C2.56987 375.59 24.9168 309.632 62.7468 322.312C100.506 335.252 78.1594 401.201 40.3262 388.521Z" fill="black"/>
<path d="M95.9709 360.719C79.8985 358.535 97.1368 327.351 63.3265 314.276C47.0715 307.822 36.2327 322.114 28.7346 311.013C62.878 288.948 103.338 320.737 95.9709 360.719Z" fill="#FBB040"/>
<path opacity="0.5" d="M87.2525 321.778C74.3735 303.009 48.2054 298.425 28.7283 311.013C29.2466 311.829 29.8835 312.565 30.618 313.194C49.2624 301.692 73.7073 305.103 87.2525 321.778Z" fill="white"/>
<g style="mix-blend-mode:multiply">
<path d="M66.3629 306.054C63.8181 305.198 61.195 304.595 58.5317 304.254C63.4547 305.644 64.7006 308.524 63.9255 314.504C96.9927 327.86 79.8986 358.314 95.971 360.719C99.7953 336.14 87.3423 313.152 66.3629 306.054Z" fill="#BCBEC0"/>
</g>
<path d="M58.7688 234.635L41.2775 232.886C40.1774 232.751 39.1739 232.191 38.482 231.325C37.7902 230.459 37.4652 229.357 37.5767 228.254C37.6881 227.151 38.2272 226.136 39.0782 225.426C39.9293 224.716 41.0247 224.368 42.1295 224.456L59.6208 226.205C60.7364 226.319 61.7614 226.87 62.4715 227.738C63.1816 228.606 63.519 229.72 63.4099 230.836C63.3546 231.39 63.1906 231.928 62.9275 232.419C62.6643 232.91 62.307 233.344 61.8761 233.697C61.4451 234.05 60.9489 234.314 60.4157 234.475C59.8826 234.636 59.3229 234.69 58.7688 234.635Z" fill="#8B5E3C"/>
<path d="M37.498 228.2C37.4354 228.757 37.4838 229.32 37.6403 229.858C37.7968 230.395 38.0584 230.896 38.4099 231.332C38.7614 231.768 39.1958 232.13 39.688 232.396C40.1802 232.663 40.7205 232.83 41.2774 232.886L58.7687 234.635C59.3266 234.692 59.8901 234.637 60.4265 234.473C60.9629 234.31 61.4615 234.042 61.8933 233.684C62.3251 233.327 62.6816 232.887 62.9419 232.39C63.2023 231.894 63.3613 231.35 63.4098 230.792L37.498 228.2Z" fill="#3C2415"/>
<path d="M63.4098 230.836C62.7532 236.368 54.512 235.532 54.9796 229.984C55.6362 224.463 63.8774 225.299 63.4098 230.836Z" fill="#603913"/>
<path d="M62.3177 230.737C61.8853 234.818 55.6748 234.19 56.072 230.097C56.4691 226.003 62.7149 226.65 62.3177 230.737Z" fill="black"/>
<path d="M70.2865 253.577C61.488 250.938 57.0776 244.692 61.2478 235.804C61.3741 235.469 61.4196 235.108 61.3806 234.752C61.3417 234.396 61.2194 234.054 61.0236 233.754C59.8417 231.909 56.9623 233.476 56.9238 230.257C57.6893 226.131 63.5187 228.818 64.8511 231.285C66.7537 233.927 65.7576 237.236 64.5661 239.933C62.7756 245.211 67.2277 247.488 71.2922 249.247C73.4446 250.233 72.5894 253.67 70.2865 253.577Z" fill="#FFDE17"/>
<g style="mix-blend-mode:multiply">
<path d="M68.8902 250.666C64.2587 248.936 60.9501 244.9 62.8046 239.833C64.8225 235.349 62.4843 230.138 57.0937 229.562C56.958 229.893 56.9024 230.251 56.9313 230.608C56.9602 230.964 57.0728 231.309 57.2601 231.614C57.4473 231.919 57.7039 232.175 58.0089 232.363C58.314 232.55 58.6588 232.662 59.0155 232.691C59.4102 232.686 59.7998 232.781 60.1477 232.967C60.4955 233.154 60.7904 233.426 61.0045 233.757C61.2003 234.057 61.3226 234.399 61.3616 234.756C61.4005 235.112 61.355 235.472 61.2288 235.807C57.1066 244.596 61.3569 250.672 69.9664 253.545C70.1806 253.018 70.1889 252.429 69.9895 251.896C69.7902 251.362 69.3979 250.923 68.8902 250.666Z" fill="#BCBEC0"/>
</g>
<path d="M65.9145 287.647C65.5137 287.646 65.118 287.557 64.7552 287.386C64.3924 287.216 64.0713 286.968 63.8143 286.661C63.5574 286.353 63.3708 285.993 63.2677 285.606C63.1646 285.218 63.1475 284.813 63.2176 284.418L69.4666 250.147C70.1072 246.624 75.4817 247.585 74.8539 251.13L68.605 285.402C68.4897 286.031 68.1574 286.601 67.6659 287.011C67.1744 287.421 66.5547 287.646 65.9145 287.647Z" fill="black"/>
<path d="M66.3021 298.973L70.3475 276.911L64.3804 275.806C64.5181 277.407 58.4741 302.131 60.3959 302.954C61.6258 304.645 64.2779 303.841 65.3605 305.802C68.2431 305.645 54.5473 355.098 54.8228 356.315C53.9292 360.159 59.7777 361.6 60.729 357.708L71.9009 310.423C73.0475 305.891 70.5685 300.843 66.3021 298.973Z" fill="#FFDE17"/>
<g style="mix-blend-mode:multiply">
<path d="M71.8017 305.391C71.4019 303.99 70.7033 302.692 69.754 301.586C68.8046 300.48 67.627 299.593 66.3022 298.986L70.3155 277.09L67.4489 276.542C67.5642 277.875 61.9334 301.314 63.8327 301.676C65.0659 303.37 67.7179 302.563 68.8005 304.523C71.6832 304.402 57.9874 353.798 58.2628 355.034C58.0862 355.786 58.2037 356.577 58.5914 357.245C58.979 357.913 59.6075 358.408 60.3479 358.628C61.1166 354.89 73.6946 308.146 71.8017 305.391Z" fill="#BCBEC0"/>
</g>
<path d="M58.6952 360.236C54.7139 359.006 56.6453 353.138 60.5593 354.56C60.9669 354.674 61.3463 354.871 61.673 355.14C61.9996 355.409 62.2663 355.744 62.4557 356.122C62.6452 356.501 62.7534 356.914 62.7732 357.337C62.793 357.76 62.724 358.182 62.5707 358.577C62.2766 359.31 61.7031 359.897 60.9764 360.208C60.2497 360.52 59.4291 360.529 58.6952 360.236Z" fill="#BF8920"/>
<path d="M62.5675 358.57C61.1966 361.952 56.7061 360.171 58.0449 356.764C59.3838 353.356 63.9031 355.178 62.5675 358.57Z" fill="#FFB72B"/>
<g style="mix-blend-mode:multiply">
<path d="M62.1158 357.923C61.8467 360.239 58.4996 360.28 58.6918 357.779C58.884 355.277 62.4521 355.213 62.1158 357.923Z" fill="black"/>
</g>
<path d="M66.7152 298.87L60.1748 297.682C59.9246 297.638 59.6855 297.546 59.4713 297.409C59.2572 297.272 59.0723 297.095 58.9272 296.886C58.7822 296.678 58.6799 296.443 58.6263 296.194C58.5727 295.946 58.5688 295.69 58.6149 295.44C58.6586 295.19 58.7513 294.951 58.8879 294.736C59.0245 294.522 59.2022 294.337 59.4106 294.192C59.6191 294.047 59.8543 293.945 60.1026 293.891C60.3508 293.838 60.6072 293.834 60.857 293.88L67.4006 295.068C67.6508 295.112 67.8899 295.205 68.104 295.341C68.3182 295.478 68.5031 295.656 68.6482 295.864C68.7932 296.073 68.8955 296.308 68.9491 296.556C69.0027 296.804 69.0066 297.061 68.9605 297.31C68.8684 297.814 68.5806 298.262 68.1598 298.554C67.739 298.846 67.2196 298.96 66.7152 298.87Z" fill="black"/>
<path d="M70.482 279.067L63.9415 277.875C61.4625 277.462 62.1671 273.577 64.6366 274.064L71.1802 275.252C71.6827 275.346 72.1282 275.633 72.4202 276.053C72.7121 276.473 72.827 276.99 72.74 277.494C72.6952 277.746 72.6013 277.986 72.4635 278.201C72.3257 278.416 72.1468 278.602 71.9371 278.749C71.7274 278.895 71.4909 278.998 71.2412 279.052C70.9915 279.107 70.7335 279.112 70.482 279.067Z" fill="black"/>
<path d="M79.4342 254.138H73.8066C70.8407 254.138 70.8215 249.603 73.8066 249.587C82.1823 250.368 90.9648 248.104 93.9372 239.337C96.7974 230.869 106.268 233.367 112.953 234.059C115.9 234.379 115.448 238.863 112.476 238.584L103.347 237.624C95.5386 236.772 98.8729 253.334 79.4342 254.138Z" fill="#FFDE17"/>
<g style="mix-blend-mode:multiply">
<path d="M114.9 236.922C114.9 236.429 105.231 235.724 104.77 235.593C89.7157 235.25 99.5231 254.029 74.7516 252.094C74.2536 252.095 73.7697 252.26 73.3748 252.563C72.9799 252.867 72.696 253.292 72.5671 253.773C82.8742 255.976 94.7123 251.467 98.2292 240.849C98.5926 239.811 99.2971 238.926 100.228 238.34C101.159 237.753 102.26 237.5 103.354 237.62L112.482 238.581C113.017 238.636 113.553 238.5 113.996 238.196C114.439 237.892 114.76 237.44 114.9 236.922Z" fill="#BCBEC0"/>
</g>
<path d="M122.783 241.621L105.295 239.872C104.177 239.759 103.15 239.206 102.439 238.336C101.729 237.466 101.393 236.349 101.506 235.231C101.619 234.113 102.171 233.086 103.042 232.375C103.912 231.665 105.029 231.329 106.147 231.442L123.638 233.191C129.166 233.844 128.321 242.088 122.783 241.621Z" fill="#8B5E3C"/>
<path d="M101.515 235.186C101.452 235.742 101.5 236.306 101.657 236.844C101.813 237.381 102.075 237.883 102.426 238.319C102.778 238.754 103.212 239.116 103.705 239.383C104.197 239.649 104.738 239.816 105.295 239.872L122.783 241.621C123.341 241.677 123.904 241.622 124.441 241.459C124.977 241.296 125.476 241.027 125.908 240.67C126.339 240.312 126.696 239.872 126.956 239.376C127.216 238.879 127.376 238.336 127.424 237.777L101.515 235.186Z" fill="#3C2415"/>
<path d="M127.424 237.832C126.783 243.363 118.529 242.527 118.997 236.98C119.65 231.448 127.892 232.284 127.424 237.832Z" fill="#603913"/>
<path d="M125.845 237.672C125.48 241.115 120.243 240.586 120.576 237.14C120.909 233.694 126.178 234.225 125.845 237.672Z" fill="#8B5E3C"/>
<path d="M114.897 225.231C114.897 225.231 108.203 224.235 103.29 233.53C102.31 235.381 102.412 239.388 103.738 240.115C109.612 243.344 118.007 239.526 115.909 236.156C115.099 234.875 117.767 232.694 122.373 233.094C123.821 233.219 122.543 228.565 120.08 227.031C117.037 225.145 114.897 225.231 114.897 225.231Z" fill="#FFC978"/>
<path d="M50.8095 218.201C50.8095 218.201 44.1154 217.205 39.202 226.5C38.2219 228.354 38.3244 232.361 39.6504 233.088C45.5246 236.313 53.9196 232.495 51.8216 229.129C51.0113 227.848 53.6762 225.667 58.282 226.064C59.7329 226.192 58.4549 221.535 55.9887 220.001C52.9459 218.114 50.8095 218.201 50.8095 218.201Z" fill="#FFC978"/>
<path d="M44.7815 103.327C48.1991 98.4297 50.6237 91.5082 66.3886 93.1096C95.0582 96.0179 75.0366 87.1458 75.0366 87.1458H51.2963C14.2286 87.1458 0.878725 107.622 0.369457 109.269C-0.460107 111.949 1.54174 113.807 3.94715 114.262C28.0269 118.807 41.1526 108.522 44.7815 103.327Z" fill="black"/>
<path d="M158.4 130.414C156.913 217.33 27.6296 217.314 26.1594 130.414C27.6424 43.4992 156.926 43.5152 158.4 130.414Z" fill="#FEDC9B"/>
<path d="M161.5 120.78C161.795 131.785 152.573 140.718 141.562 140.718C130.55 140.718 119.372 128.775 118.004 107.891C117.287 96.9053 130.55 100.845 141.562 100.845C152.573 100.845 160.991 101.646 161.5 120.78Z" fill="black"/>
<g style="mix-blend-mode:multiply">
<path d="M152.516 157.668C171.673 117.583 142.443 67.6848 98.5654 64.6035C127.357 71.0446 149.054 96.2454 150.133 126.709C132.744 128.259 126.626 153.04 141.091 162.582C128.808 183.881 103.761 197.609 77.7783 194.931C108.168 202.218 140.681 185.082 152.516 157.668Z" fill="#FDECD8"/>
</g>
<path d="M171.907 140.718C171.461 166.912 132.51 166.906 132.052 140.718C132.501 114.521 171.465 114.528 171.907 140.718Z" fill="#FEDC9B"/>
<g style="mix-blend-mode:multiply">
<path d="M151.981 126.513C148.764 126.512 145.642 127.608 143.131 129.62C150.149 134.697 150.149 146.737 143.131 151.816C164.514 165.935 177.547 128.858 151.981 126.513Z" fill="#FBCB9E"/>
</g>
<path d="M48.8877 143.008C48.8877 149.068 34.7243 149.068 34.7371 143.008C34.7499 136.948 48.8877 136.948 48.8877 143.008Z" fill="#F4BB92"/>
<path d="M107.681 143.008C107.681 149.068 93.5143 149.068 93.5303 143.008C93.5463 136.948 107.697 136.948 107.681 143.008Z" fill="#F4BB92"/>
<path d="M57.7695 130.408C57.683 136.218 51.0689 136.215 50.9824 130.408C51.0689 124.601 57.683 124.601 57.7695 130.408Z" fill="#3C2415"/>
<path d="M61.1358 124.579C61.1358 127.782 58.1091 124.579 54.3776 124.579C50.6462 124.579 47.6162 127.782 47.6162 124.579C47.6386 117.036 61.1134 117.036 61.1358 124.579Z" fill="#3C2415"/>
<path d="M89.2992 130.408C89.2127 136.218 82.5987 136.215 82.5154 130.408C82.5987 124.601 89.2127 124.601 89.2992 130.408Z" fill="#3C2415"/>
<path d="M92.6656 124.579C92.6656 127.782 89.6389 124.579 85.9074 124.579C82.176 124.579 79.146 127.782 79.146 124.579C79.1684 117.036 92.6432 117.036 92.6656 124.579Z" fill="#3C2415"/>
<path d="M69.7069 139.466C66.3566 140.231 63.6565 139.991 61.1294 137.864C63.2978 160 81.9486 153.786 78.2876 133.938C76.4331 137.07 73.0604 138.697 69.7069 139.466Z" fill="#3C2415"/>
<path d="M64.4893 148.261C69.1303 155.122 76.1288 151.935 77.9224 144.35C73.3358 144.728 68.4033 146.016 64.4893 148.261Z" fill="#ED1C24"/>
<path d="M89.4657 44.1046C63.3521 43.0956 41.2165 63.6426 33.6736 91.3577C33.6736 91.3577 105.474 84.4201 109.808 114.355L161.5 120.783C181.416 85.397 140.332 46.0776 89.4657 44.1046Z" fill="#035F52"/>
<path d="M117.706 49.7546C87.0029 35.889 48.9519 47.8136 36.47 83.0108C67.119 84.5129 102.496 73.1073 117.706 49.7546Z" fill="#036C5E"/>
<g style="mix-blend-mode:multiply">
<path d="M156.609 75.1732C147.417 92.7894 128.545 104.865 108.815 110.639C109.279 111.835 109.612 113.078 109.808 114.345L161.5 120.774C170.28 105.162 167.185 88.7825 156.609 75.1732Z" fill="#D1D3D4"/>
</g>
<path d="M57.5613 85.1696C31.1145 82.335 -5.76422 103.426 0.76019 112.177C0.76019 112.177 5.64469 94.8393 30.9544 95.4223C30.9544 95.4223 67.3559 93.8592 79.0242 108.404C83.3418 113.785 95.8557 117.58 103.335 117.66C103.335 117.66 119.186 117.34 118.978 115.396C116.672 93.5005 90.7566 85.1696 57.5613 85.1696Z" fill="#036C5E"/>
<path d="M112.345 104C105.583 89.66 52.805 79.2152 29.7086 88.7696C27.2839 89.5351 12.3102 95.4958 30.6182 92.7861C42.3859 91.0341 67.3528 89.4294 89.2322 108.967C97.4125 116.305 118.241 116.222 112.345 104Z" fill="#1C786B"/>
<defs>
<linearGradient id="paint0_linear_18_1561" x1="139.491" y1="343.382" x2="123.886" y2="319.58" gradientUnits="userSpaceOnUse">
<stop stop-color="#E6E7E8"/>
<stop offset="0.1" stop-color="#E1E2E3"/>
<stop offset="0.24" stop-color="#D1D2D3"/>
<stop offset="0.38" stop-color="#B8B9BA"/>
<stop offset="0.54" stop-color="#949596"/>
<stop offset="0.7" stop-color="#676768"/>
<stop offset="0.87" stop-color="#303031"/>
<stop offset="1"/>
</linearGradient>
<linearGradient id="paint1_linear_18_1561" x1="203.03" y1="375.834" x2="203.03" y2="306.055" gradientUnits="userSpaceOnUse">
<stop stop-color="#E6E7E8"/>
<stop offset="1"/>
</linearGradient>
<linearGradient id="paint2_linear_18_1561" x1="209.051" y1="349.012" x2="209.051" y2="334.74" gradientUnits="userSpaceOnUse">
<stop/>
<stop offset="1" stop-color="#E6E7E8"/>
</linearGradient>
<linearGradient id="paint3_linear_18_1561" x1="210.3" y1="347.062" x2="210.3" y2="336.777" gradientUnits="userSpaceOnUse">
<stop stop-color="#E6E7E8"/>
<stop offset="1"/>
</linearGradient>
<linearGradient id="paint4_linear_18_1561" x1="137.231" y1="353.404" x2="137.231" y2="334.228" gradientUnits="userSpaceOnUse">
<stop/>
<stop offset="1" stop-color="#E6E7E8"/>
</linearGradient>
<linearGradient id="paint5_linear_18_1561" x1="138.91" y1="350.787" x2="138.91" y2="336.966" gradientUnits="userSpaceOnUse">
<stop stop-color="#E6E7E8"/>
<stop offset="1"/>
</linearGradient>
<linearGradient id="paint6_linear_18_1561" x1="153.006" y1="369.581" x2="137.402" y2="345.782" gradientUnits="userSpaceOnUse">
<stop stop-color="#E6E7E8"/>
<stop offset="0.1" stop-color="#E1E2E3"/>
<stop offset="0.24" stop-color="#D1D2D3"/>
<stop offset="0.38" stop-color="#B8B9BA"/>
<stop offset="0.54" stop-color="#949596"/>
<stop offset="0.7" stop-color="#676768"/>
<stop offset="0.87" stop-color="#303031"/>
<stop offset="1"/>
</linearGradient>
<linearGradient id="paint7_linear_18_1561" x1="50.3611" y1="391.891" x2="50.3611" y2="318.94" gradientUnits="userSpaceOnUse">
<stop stop-color="#E6E7E8"/>
<stop offset="1"/>
</linearGradient>
<linearGradient id="paint8_linear_18_1561" x1="56.6419" y1="363.852" x2="56.6419" y2="348.929" gradientUnits="userSpaceOnUse">
<stop/>
<stop offset="1" stop-color="#E6E7E8"/>
</linearGradient>
<linearGradient id="paint9_linear_18_1561" x1="57.9488" y1="361.815" x2="57.9488" y2="351.059" gradientUnits="userSpaceOnUse">
<stop stop-color="#E6E7E8"/>
<stop offset="1"/>
</linearGradient>
</defs>
</svg>
