<svg xmlns="http://www.w3.org/2000/svg" version="1.1" xmlns:xlink="http://www.w3.org/1999/xlink" xmlns:svgjs="http://svgjs.dev/svgjs" width="2000" height="661" viewBox="0 0 2000 661"><g transform="matrix(1,0,0,1,-1.2121212121212466,-0.08291481566823222)"><svg viewBox="0 0 396 131" data-background-color="#ececea" preserveAspectRatio="xMidYMid meet" height="661" width="2000" xmlns="http://www.w3.org/2000/svg" xmlns:xlink="http://www.w3.org/1999/xlink"><g id="tight-bounds" transform="matrix(1,0,0,1,0.2400000000000091,0.016432436993255806)"><svg viewBox="0 0 395.52 130.9671351260135" height="130.9671351260135" width="395.52"><g><svg viewBox="0 0 647.7541004156672 214.48851839999998" height="130.9671351260135" width="395.52"><g transform="matrix(1,0,0,1,0,27.300550361178495)"><svg viewBox="0 0 395.52 159.887417677643" height="159.887417677643" width="395.52"><g id="textblocktransform"><svg viewBox="0 0 395.52 159.887417677643" height="159.887417677643" width="395.52" id="textblock"><g><svg viewBox="0 0 395.52 159.887417677643" height="159.887417677643" width="395.52"><g transform="matrix(1,0,0,1,0,0)"><svg width="395.52" viewBox="1.6 -35.1 115.39 46.64999999999999" height="159.887417677643" data-palette-color="#009b7d"><path d="M9.7 0.7L9.7 0.7Q7.3 0.7 5.38 0.18 3.45-0.35 1.7-1.3L1.7-1.3 1.7-7.2 3.05-7.2 4.55-4.35Q5.5-2.5 6.73-1.6 7.95-0.7 9.85-0.7L9.85-0.7Q12.2-0.7 13.6-1.73 15-2.75 15-4.5L15-4.5Q15-6.1 13.95-7.1 12.9-8.1 10.2-8.95L10.2-8.95 8-9.65Q5.05-10.55 3.33-12.38 1.6-14.2 1.6-16.95L1.6-16.95Q1.6-19.1 2.75-20.88 3.9-22.65 6.1-23.7 8.3-24.75 11.45-24.75L11.45-24.75Q13.5-24.75 15.23-24.28 16.95-23.8 18.6-22.95L18.6-22.95 18.3-17.6 17-17.6 15.45-20.45Q14.65-22.05 13.83-22.68 13-23.3 11.3-23.3L11.3-23.3Q9.5-23.3 8.13-22.38 6.75-21.45 6.75-19.8L6.75-19.8Q6.75-18.25 7.9-17.28 9.05-16.3 11.6-15.45L11.6-15.45 13.75-14.8Q17.4-13.65 18.95-11.75 20.5-9.85 20.5-7.2L20.5-7.2Q20.5-3.65 17.68-1.48 14.85 0.7 9.7 0.7ZM30.05 0.7L30.05 0.7Q27.2 0.7 25.22-0.93 23.25-2.55 23.25-5.6L23.25-5.6Q23.25-8 25.57-10.03 27.9-12.05 32.9-13L32.9-13Q33.75-13.2 34.87-13.38 36-13.55 37.1-13.75L37.1-13.75 37.1-17.3Q37.1-20.7 36.25-22 35.4-23.3 33.55-23.3L33.55-23.3 33.4-23.3Q32.25-23.3 31.57-22.58 30.9-21.85 30.7-20.2L30.7-20.2 30.55-19.55Q30.4-17.55 29.5-16.63 28.6-15.7 27.25-15.7L27.25-15.7Q26-15.7 25.17-16.48 24.35-17.25 24.35-18.5L24.35-18.5Q24.35-20.55 25.75-21.95 27.15-23.35 29.47-24.05 31.8-24.75 34.5-24.75L34.5-24.75Q38.95-24.75 41.3-22.6 43.65-20.45 43.65-15.6L43.65-15.6 43.65-4.45Q43.65-2.3 45.7-2.3L45.7-2.3 46.85-2.3 47.35-1.75Q46.45-0.6 45.35 0.03 44.25 0.65 42.35 0.65L42.35 0.65Q40.2 0.65 38.92-0.38 37.65-1.4 37.25-3.1L37.25-3.1Q35.65-1.4 34.1-0.35 32.55 0.7 30.05 0.7ZM32.95-2.5L32.95-2.5Q33.95-2.5 34.85-2.95 35.75-3.4 37.1-4.45L37.1-4.45 37.1-12.45Q35.8-12.25 34.45-11.95L34.45-11.95Q32.3-11.45 30.97-10.1 29.65-8.75 29.65-6.45L29.65-6.45Q29.65-4.45 30.57-3.48 31.5-2.5 32.95-2.5ZM60.3 11.55L48.5 11.55 48.5 10.6 49.15 10.4Q50.15 10.15 50.55 9.58 50.95 9 50.95 7.95L50.95 7.95Q50.95 5.9 50.97 4.08 51 2.25 51 0.55L51 0.55 51-13.2Q51-14.75 51-15.88 51-17 50.95-18.4L50.95-18.4Q50.95-19.45 50.6-20.03 50.25-20.6 49.25-20.8L49.25-20.8 48.5-20.95 48.5-21.85 56.55-24.75 57.15-24.25 57.6-22.4Q61.05-24.75 65.4-24.75L65.4-24.75Q69.65-24.75 72.22-21.55 74.8-18.35 74.8-12.1L74.8-12.1Q74.8-6.05 71.97-2.68 69.15 0.7 64.3 0.7L64.3 0.7Q62.35 0.7 60.62 0.35 58.9 0 57.55-0.7L57.55-0.7 57.55 0.8Q57.55 2.3 57.57 4.05 57.6 5.8 57.6 7.85L57.6 7.85Q57.6 9.85 59.35 10.35L59.35 10.35 60.3 10.6 60.3 11.55ZM61.95-1.3L61.95-1.3Q64.6-1.3 66.12-3.68 67.65-6.05 67.65-11.9L67.65-11.9Q67.65-17.7 66.2-20.03 64.75-22.35 62.1-22.35L62.1-22.35Q61.15-22.35 60.05-22.05 58.95-21.75 57.7-21.05L57.7-21.05 57.7-2.15Q59.7-1.3 61.95-1.3ZM82.89-27.5L82.89-27.5Q81.24-27.5 80.09-28.55 78.94-29.6 78.94-31.2L78.94-31.2Q78.94-32.85 80.09-33.88 81.24-34.9 82.89-34.9L82.89-34.9Q84.54-34.9 85.69-33.88 86.84-32.85 86.84-31.2L86.84-31.2Q86.84-29.6 85.69-28.55 84.54-27.5 82.89-27.5ZM88.59 0L77.14 0 77.14-0.95 77.89-1.15Q78.89-1.45 79.24-2.05 79.59-2.65 79.64-3.65L79.64-3.65 79.64-12.85Q79.64-14.4 79.64-15.73 79.64-17.05 79.59-18.45L79.59-18.45Q79.59-19.45 79.22-20.03 78.84-20.6 77.84-20.8L77.84-20.8 77.14-20.95 77.14-21.85 85.89-24.75 86.49-24.2 86.34-17.1 86.34-3.6Q86.34-2.6 86.72-2 87.09-1.4 88.04-1.1L88.04-1.1 88.59-0.95 88.59 0ZM101.29 0.7L101.29 0.7Q98.34 0.7 95.99-0.63 93.64-1.95 92.32-4.73 90.99-7.5 90.99-11.8L90.99-11.8Q90.99-16.1 92.49-18.98 93.99-21.85 96.49-23.3 98.99-24.75 101.99-24.75L101.99-24.75Q103.79-24.75 105.44-24.33 107.09-23.9 108.34-23.05L108.34-23.05 108.34-29.55Q108.34-30.6 108.02-31.08 107.69-31.55 106.69-31.8L106.69-31.8 105.69-32 105.69-32.95 114.39-35.1 115.04-34.65 114.84-27.6 114.84-3.55Q114.84-2.6 115.19-1.98 115.54-1.35 116.44-1.1L116.44-1.1 116.99-0.95 116.99 0 108.69 0.55 108.24-1.55Q106.89-0.5 105.14 0.1 103.39 0.7 101.29 0.7ZM104.04-1.6L104.04-1.6Q106.19-1.6 108.09-3L108.09-3 108.09-21.6Q106.24-22.75 104.09-22.75L104.09-22.75Q101.64-22.75 99.89-20.18 98.14-17.6 98.14-11.9L98.14-11.9Q98.14-6.2 99.79-3.9 101.44-1.6 104.04-1.6Z" opacity="1" transform="matrix(1,0,0,1,0,0)" fill="#009b7d" class="wordmark-text-0" data-fill-palette-color="primary" id="text-0"></path></svg></g></svg></g></svg></g></svg></g><g transform="matrix(1,0,0,1,433.26558201566723,0)"><svg viewBox="0 0 214.48851839999998 214.48851839999998" height="214.48851839999998" width="214.48851839999998"><g><svg></svg></g><g id="icon-0"><svg viewBox="0 0 214.48851839999998 214.48851839999998" height="214.48851839999998" width="214.48851839999998"><g><rect width="195.02567136" height="195.02567136" x="9.731423519999993" y="9.731423519999993" fill="#ffbf5d" data-fill-palette-color="accent"></rect><rect width="195.02567136" height="195.02567136" x="-5.329070518200751e-15" y="-5.329070518200751e-15" fill="#ffbf5d" opacity="0.5" data-fill-palette-color="accent"></rect></g><g transform="matrix(1,0,0,1,27.80406719999999,30.1464503032865)"><svg viewBox="0 0 158.880384 154.19561779342698" height="154.19561779342698" width="158.880384"><g><svg xmlns="http://www.w3.org/2000/svg" xmlns:xlink="http://www.w3.org/1999/xlink" xmlns:a="http://ns.adobe.com/AdobeSVGViewerExtensions/3.0/" version="1.1" x="0" y="0" viewBox="0.00012355262508774272 -0.000015904823183036237 90.28222977922168 87.62015703949469" enable-background="new -5.006 -5.277 100 100" xml:space="preserve" height="154.19561779342698" width="158.880384" class="icon-cg-0" data-fill-palette-color="quaternary" id="cg-0"><path d="M58.138 21.116C58.15 21.065 58.152 21.052 58.138 21.116L58.138 21.116z" fill="#ececea" data-fill-palette-color="quaternary"></path><path d="M58.117 21.217c0.008-0.043 0.017-0.079 0.021-0.101C58.133 21.142 58.125 21.177 58.117 21.217z" fill="#ececea" data-fill-palette-color="quaternary"></path><path d="M58.095 21.314c0.008-0.035 0.014-0.066 0.022-0.098C58.109 21.246 58.104 21.275 58.095 21.314z" fill="#ececea" data-fill-palette-color="quaternary"></path><path d="M60.286 30.355c0.001-0.001 0.001-0.003 0.002-0.004C60.339 30.085 60.312 30.222 60.286 30.355z" fill="#ececea" data-fill-palette-color="quaternary"></path><path d="M44.889 0.125c0 0 0-0.001 0-0.001C44.895-0.092 44.891 0.018 44.889 0.125z" fill="#ececea" data-fill-palette-color="quaternary"></path><path d="M50.186 2.567c0.001-0.002 0.001-0.004 0.002-0.007C50.272 2.032 50.229 2.303 50.186 2.567z" fill="#ececea" data-fill-palette-color="quaternary"></path><path d="M45.139 66.851c-7.846 0-41.018-2.088-42.425-2.178-1.596-0.101-2.809-1.478-2.708-3.074 0.101-1.597 1.481-2.802 3.073-2.708 0.343 0.022 34.396 2.168 42.06 2.168 7.706 0 41.799-1.194 42.142-1.206 0.034-0.002 0.068-0.003 0.104-0.003 1.553 0 2.838 1.231 2.894 2.798 0.056 1.598-1.194 2.938-2.794 2.994C86.077 65.692 52.946 66.851 45.139 66.851z" fill="#ececea" data-fill-palette-color="quaternary"></path><path d="M3.115 43.355c-1.439 0-2.686-1.07-2.869-2.536-0.2-1.587 0.925-3.035 2.512-3.235 0.228-0.028 22.874-2.844 42.36-2.844 19.485 0 42.395 2.815 42.625 2.844 1.587 0.197 2.714 1.644 2.517 3.231-0.197 1.589-1.646 2.718-3.23 2.518-0.226-0.027-22.791-2.799-41.911-2.799-19.128 0-41.415 2.772-41.637 2.799C3.357 43.35 3.236 43.355 3.115 43.355z" fill="#ececea" data-fill-palette-color="quaternary"></path><path d="M88.35 49.23c-0.037 0-0.072 0-0.108-0.004-0.344-0.021-34.434-2.17-42.138-2.17-7.725 0-41.838 1.194-42.182 1.207-0.93 0.027-1.716-0.697-1.748-1.629-0.033-0.933 0.696-1.716 1.629-1.748 0.343-0.013 34.517-1.209 42.301-1.209 7.811 0 40.943 2.088 42.352 2.176 0.93 0.059 1.638 0.861 1.579 1.793C89.979 48.541 89.233 49.23 88.35 49.23z" fill="#ececea" data-fill-palette-color="quaternary"></path><path d="M3.862 51.402c0.764-0.765 26.219-1.931 41.11-1.931 14.893 0 41.767 1.288 42.409 1.931 0.645 0.644 0.563 4.748 0 5.311-0.562 0.563-28.623 1.933-40.863 1.933-12.241 0-41.972-1.57-42.656-2.255C3.178 55.708 3.097 52.167 3.862 51.402z" fill="#ececea" data-fill-palette-color="quaternary"></path><path d="M86.296 74.575c-1.1-0.475-18.86 1.2-31.394 2.108-1.979 3.645-4.662 7.88-6.968 10.79 8.633-0.276 16.494-0.877 20.016-1.19 4.948-0.443 15.729-1.812 16.775-3.38C85.773 81.334 87.783 75.219 86.296 74.575z" fill="#ececea" data-fill-palette-color="quaternary"></path><path d="M32.173 76.381c-12.04-1.096-27.415-2.758-28.311-1.806-1.287 1.368-0.643 6.999 0 7.603 0.644 0.605 21.243 5.313 33.432 5.433 0.864 0.008 1.734 0.011 2.608 0.008C37.371 84.625 34.345 80.154 32.173 76.381z" fill="#ececea" data-fill-palette-color="quaternary"></path><path d="M29.203 69.801c-11.95-0.631-25.501-1.485-25.716-1.498-0.936-0.06-1.734 0.648-1.793 1.579-0.06 0.934 0.648 1.734 1.58 1.794 0.909 0.056 15.096 0.949 27.116 1.574C29.614 71.66 29.16 70.418 29.203 69.801z" fill="#ececea" data-fill-palette-color="quaternary"></path><path d="M87.866 69.265c-0.021 0-0.04 0-0.062 0.002-0.242 0.008-17.404 0.607-30.153 0.959-0.119 0.748-0.575 1.952-1.259 3.415 12.885-0.345 31.28-0.988 31.532-0.997 0.933-0.033 1.661-0.815 1.629-1.748C89.521 69.983 88.771 69.265 87.866 69.265z" fill="#ececea" data-fill-palette-color="quaternary"></path><path d="M56.287 68.507c1.267 1.269-9.268 19.112-12.151 19.112-2.884 0-14.225-17.772-12.884-19.112C32.592 67.166 55.02 67.24 56.287 68.507z" fill="#ececea" data-fill-palette-color="quaternary"></path><path d="M45.863 5.229C13.356 4.907 2.052 31.971 3.782 33.861c1.729 1.892 31.581-2.614 42.081-2.614 10.501 0 39.104 3.258 42.082 2.614C90.922 33.217 78.37 5.552 45.863 5.229zM19.143 26.23c-0.854 0-1.547-0.693-1.547-1.548 0-0.854 0.692-1.547 1.547-1.547 0.855 0 1.548 0.693 1.548 1.547C20.691 25.538 19.998 26.23 19.143 26.23zM28.918 17.921c-0.854 0-1.547-0.693-1.547-1.548 0-0.854 0.693-1.547 1.547-1.547 0.855 0 1.548 0.693 1.548 1.547C30.466 17.228 29.773 17.921 28.918 17.921zM33.806 26.23c-0.854 0-1.548-0.693-1.548-1.548 0-0.854 0.694-1.547 1.548-1.547 0.855 0 1.548 0.693 1.548 1.547C35.354 25.538 34.662 26.23 33.806 26.23zM39.672 13.033c-0.855 0-1.549-0.693-1.549-1.547s0.693-1.547 1.549-1.547c0.854 0 1.547 0.693 1.547 1.547S40.526 13.033 39.672 13.033zM44.069 21.342c-0.854 0-1.547-0.693-1.547-1.548 0-0.854 0.693-1.548 1.547-1.548 0.855 0 1.548 0.693 1.548 1.548C45.617 20.649 44.924 21.342 44.069 21.342zM57.756 28.675c-0.855 0-1.547-0.693-1.547-1.549s0.691-1.548 1.547-1.548 1.548 0.692 1.548 1.548S58.611 28.675 57.756 28.675zM58.245 16.456c-0.855 0-1.548-0.693-1.548-1.549 0-0.854 0.692-1.547 1.548-1.547 0.854 0 1.548 0.693 1.548 1.547C59.793 15.762 59.1 16.456 58.245 16.456zM70.953 23.787c-0.854 0-1.549-0.694-1.549-1.549 0-0.854 0.694-1.547 1.549-1.547s1.548 0.693 1.548 1.547C72.501 23.092 71.808 23.787 70.953 23.787z" fill="#ececea" data-fill-palette-color="quaternary"></path></svg></g></svg></g></svg></g></svg></g></svg></g><defs></defs></svg><rect width="395.52" height="130.9671351260135" fill="none" stroke="none" visibility="hidden"></rect></g></svg></g></svg>