<svg width="15" height="16" viewBox="0 0 15 16" fill="none" xmlns="http://www.w3.org/2000/svg">
<path fill-rule="evenodd" clip-rule="evenodd" d="M7.14931 0.518935C5.57947 0.614213 4.05699 1.1985 2.81852 2.18099C2.44957 2.47366 1.84386 3.069 1.57588 3.4023C0.950998 4.17958 0.483533 5.10335 0.240792 6.04052C-0.0015345 6.97605 -0.0636916 8.056 0.0667466 9.06384C0.278276 10.6985 1.03478 12.1872 2.27201 13.4037C3.27173 14.3867 4.51984 15.0305 5.99551 15.3245C6.70397 15.4655 7.07369 15.4983 7.97768 15.5C9.04923 15.5019 9.6411 15.4331 10.6255 15.1922C11.3137 15.0237 12.2905 14.6754 12.528 14.5137C13.0033 14.1901 13.0497 13.4835 12.621 13.0995C12.4352 12.9331 12.2615 12.866 12.016 12.8659C11.8322 12.8658 11.7571 12.8859 11.3503 13.0444C9.6532 13.7057 8.04732 13.8825 6.5028 13.5781C4.96884 13.2758 3.80561 12.468 2.95704 11.1157C1.96264 9.53102 1.81448 7.3144 2.58658 5.57305C3.13934 4.32639 4.13 3.30864 5.35986 2.72389C6.84403 2.01825 8.84527 2.02655 10.3296 2.74451C10.9275 3.03369 11.3473 3.34044 11.8416 3.84924C12.7188 4.75233 13.1438 5.902 13.0862 7.21578C13.0467 8.1135 12.8238 8.79708 12.3734 9.4011C12.052 9.83214 11.6777 10.1423 11.3411 10.2564C11.252 10.2866 11.0985 10.3089 10.9754 10.3095C10.7145 10.3108 10.6164 10.2518 10.5576 10.0584C10.498 9.86259 10.5432 9.37834 10.8618 6.8009C11.0166 5.5482 11.1432 4.49527 11.1432 4.46107V4.39888L10.1606 4.40662L9.17801 4.41434L9.12014 4.61968C9.08834 4.73262 9.05958 4.82886 9.05624 4.83356C9.0529 4.83825 8.94148 4.76999 8.80868 4.68184C8.31059 4.35127 7.88395 4.23672 7.24073 4.26086C6.40209 4.29234 5.73511 4.59202 5.10798 5.21919C4.39828 5.9289 4.03507 6.76837 3.9546 7.88486C3.89016 8.77889 4.04063 9.67142 4.36851 10.3399C4.79456 11.2085 5.5742 11.8784 6.36665 12.0567C7.25812 12.2572 8.06723 12.0413 8.70726 11.432L8.95607 11.1952L9.00574 11.2662C9.19245 11.5332 9.53628 11.8033 9.85058 11.9299C10.3858 12.1455 11.1943 12.1357 11.8976 11.9049C12.4358 11.7283 12.9228 11.4189 13.4026 10.9489C14.255 10.1138 14.763 9.10324 14.9491 7.87201C15.0169 7.42352 15.017 6.51539 14.9492 6.07173C14.7026 4.45652 13.9064 3.14087 12.5041 2.03124C11.087 0.909875 9.25099 0.39136 7.14931 0.518935ZM7.88623 6.30333C8.35589 6.44824 8.71457 6.83645 8.85131 7.34778C8.91379 7.58149 8.91344 8.09986 8.8506 8.40382C8.75764 8.85325 8.52739 9.29503 8.21024 9.63231C7.97845 9.87881 7.74553 10.026 7.47714 10.0954C7.05961 10.2035 6.80669 10.1439 6.54283 9.87526C6.25896 9.58626 6.1114 9.22768 6.04888 8.67502C6.00948 8.32667 6.04199 7.85145 6.12761 7.52379C6.27793 6.94857 6.71244 6.42829 7.15777 6.2903C7.34368 6.23269 7.67663 6.23865 7.88623 6.30333Z" fill="white"/>
</svg>
