<svg width="184" height="24" viewBox="0 0 184 24" fill="none" xmlns="http://www.w3.org/2000/svg">
<path fill-rule="evenodd" clip-rule="evenodd" d="M1.55303 4.52001C0.802319 4.64587 0.196186 5.23466 0.0382326 5.99152C-0.00850246 6.21536 -0.0109565 6.31357 0.0230456 6.59709C0.183915 7.93921 0.556978 9.36629 1.06132 10.5689C2.94111 15.0515 6.82876 18.274 11.5659 19.2764C12.3837 19.4495 13.0822 19.5307 13.3971 19.4894C14.1535 19.3902 14.804 18.7859 14.9584 18.0388C15.0216 17.7328 15.0097 15.0427 14.9438 14.763C14.7836 14.0825 14.2457 13.5437 13.5662 13.3833C13.3862 13.3408 13.0153 13.3306 11.6322 13.3301C10.6483 13.3298 9.83958 13.3446 9.72939 13.365C9.62404 13.3845 9.40865 13.464 9.25077 13.5417C9.00948 13.6604 8.88155 13.7619 8.44831 14.178C8.01307 14.596 7.90342 14.6829 7.74347 14.7361C7.51197 14.8131 7.21228 14.7945 7.01001 14.6906C6.52025 14.4392 4.85856 12.7282 4.56499 12.1732C4.45953 11.9738 4.4585 11.5613 4.56289 11.3331C4.6119 11.226 4.83324 10.9698 5.21686 10.5761C5.8624 9.91376 5.93909 9.81523 6.06812 9.48245L6.1579 9.25091L6.16938 7.71575C6.18208 6.01485 6.17187 5.90656 5.95947 5.48512C5.81538 5.19925 5.47412 4.85739 5.18891 4.71319C4.7812 4.50708 4.67148 4.496 3.08241 4.50078C2.29016 4.50316 1.60194 4.51182 1.55303 4.52001Z" fill="white"/>
<path d="M40.808 11.872V12.768H38.824V14.928H37.816V12.768H35.832V11.872H37.816V9.712H38.824V11.872H40.808ZM42.3446 10.464C42.3446 11.168 42.5153 11.8133 42.8566 12.4C43.2086 12.9867 43.678 13.4507 44.2646 13.792C44.862 14.1333 45.5233 14.304 46.2486 14.304C46.7286 14.304 47.1766 14.2187 47.5926 14.048C48.0193 13.8773 48.3873 13.6373 48.6966 13.328C49.0166 13.008 49.2513 12.6453 49.4006 12.24C49.4006 13.2853 49.2673 14.176 49.0006 14.912C48.7446 15.648 48.382 16.2133 47.9126 16.608C47.4433 16.992 46.894 17.184 46.2646 17.184C45.6673 17.184 45.1233 17.024 44.6326 16.704C44.1526 16.3733 43.7953 15.9413 43.5606 15.408L42.8726 16.032C43.182 16.6933 43.6353 17.216 44.2326 17.6C44.83 17.9733 45.502 18.16 46.2486 18.16C47.0913 18.16 47.8273 17.9093 48.4566 17.408C49.086 16.9067 49.5713 16.1493 49.9126 15.136C50.2646 14.1227 50.4406 12.8427 50.4406 11.296C50.4406 10.304 50.2646 9.456 49.9126 8.752C49.5713 8.048 49.0966 7.50933 48.4886 7.136C47.8806 6.752 47.1713 6.56 46.3606 6.56C45.614 6.56 44.9313 6.736 44.3126 7.088C43.7046 7.42933 43.2246 7.89867 42.8726 8.496C42.5206 9.08267 42.3446 9.73867 42.3446 10.464ZM46.3446 7.504C46.8886 7.504 47.3846 7.64267 47.8326 7.92C48.2806 8.18667 48.6433 8.544 48.9206 8.992C49.198 9.44 49.3366 9.93067 49.3366 10.464C49.3366 10.9973 49.198 11.488 48.9206 11.936C48.654 12.3733 48.2966 12.7307 47.8486 13.008C47.4006 13.2747 46.9046 13.408 46.3606 13.408C45.8273 13.408 45.3313 13.2747 44.8726 13.008C44.4246 12.7307 44.0673 12.3733 43.8006 11.936C43.534 11.488 43.4006 10.992 43.4006 10.448C43.4006 9.91467 43.534 9.424 43.8006 8.976C44.0673 8.528 44.4246 8.17067 44.8726 7.904C45.3206 7.63733 45.8113 7.504 46.3446 7.504ZM51.9853 10.464C51.9853 11.168 52.1559 11.8133 52.4973 12.4C52.8493 12.9867 53.3186 13.4507 53.9053 13.792C54.5026 14.1333 55.1639 14.304 55.8893 14.304C56.3693 14.304 56.8173 14.2187 57.2333 14.048C57.6599 13.8773 58.0279 13.6373 58.3373 13.328C58.6573 13.008 58.8919 12.6453 59.0413 12.24C59.0413 13.2853 58.9079 14.176 58.6413 14.912C58.3853 15.648 58.0226 16.2133 57.5533 16.608C57.0839 16.992 56.5346 17.184 55.9053 17.184C55.3079 17.184 54.7639 17.024 54.2733 16.704C53.7933 16.3733 53.4359 15.9413 53.2013 15.408L52.5133 16.032C52.8226 16.6933 53.2759 17.216 53.8733 17.6C54.4706 17.9733 55.1426 18.16 55.8893 18.16C56.7319 18.16 57.4679 17.9093 58.0973 17.408C58.7266 16.9067 59.2119 16.1493 59.5533 15.136C59.9053 14.1227 60.0813 12.8427 60.0813 11.296C60.0813 10.304 59.9053 9.456 59.5533 8.752C59.2119 8.048 58.7373 7.50933 58.1293 7.136C57.5213 6.752 56.8119 6.56 56.0013 6.56C55.2546 6.56 54.5719 6.736 53.9533 7.088C53.3453 7.42933 52.8653 7.89867 52.5133 8.496C52.1613 9.08267 51.9853 9.73867 51.9853 10.464ZM55.9852 7.504C56.5293 7.504 57.0253 7.64267 57.4733 7.92C57.9213 8.18667 58.2839 8.544 58.5613 8.992C58.8386 9.44 58.9773 9.93067 58.9773 10.464C58.9773 10.9973 58.8386 11.488 58.5613 11.936C58.2946 12.3733 57.9373 12.7307 57.4893 13.008C57.0413 13.2747 56.5453 13.408 56.0013 13.408C55.4679 13.408 54.9719 13.2747 54.5133 13.008C54.0653 12.7307 53.7079 12.3733 53.4413 11.936C53.1746 11.488 53.0413 10.992 53.0413 10.448C53.0413 9.91467 53.1746 9.424 53.4413 8.976C53.7079 8.528 54.0653 8.17067 54.5133 7.904C54.9613 7.63733 55.4519 7.504 55.9852 7.504ZM69.6099 14.848C69.6099 15.5093 69.4232 16.0853 69.0499 16.576C68.6872 17.0667 68.2019 17.4507 67.5939 17.728C66.9965 17.9947 66.3405 18.128 65.6259 18.128C64.8685 18.128 64.1965 17.9787 63.6099 17.68C63.0232 17.3707 62.5592 16.9653 62.2179 16.464C61.8872 15.9627 61.7219 15.4027 61.7219 14.784C61.7219 14.304 61.8339 13.872 62.0579 13.488C62.2925 13.0933 62.5805 12.7627 62.9219 12.496C63.2739 12.2293 63.6312 12.0373 63.9939 11.92C63.6632 11.7813 63.3539 11.6 63.0659 11.376C62.7779 11.1413 62.5485 10.8693 62.3779 10.56C62.2072 10.2507 62.1219 9.90933 62.1219 9.536C62.1219 9.06667 62.2232 8.656 62.4259 8.304C62.6392 7.94133 62.9165 7.63733 63.2579 7.392C63.5992 7.136 63.9779 6.94933 64.3939 6.832C64.8205 6.704 65.2472 6.64 65.6739 6.64C66.0899 6.64 66.5059 6.704 66.9219 6.832C67.3485 6.94933 67.7325 7.13067 68.0739 7.376C68.4259 7.62133 68.7032 7.92533 68.9059 8.288C69.1192 8.64 69.2259 9.05067 69.2259 9.52C69.2259 9.89333 69.1352 10.24 68.9539 10.56C68.7832 10.8693 68.5539 11.1413 68.2659 11.376C67.9779 11.6 67.6632 11.7813 67.3219 11.92C67.7379 12.0587 68.1165 12.272 68.4579 12.56C68.8099 12.8373 69.0872 13.168 69.2899 13.552C69.5032 13.936 69.6099 14.368 69.6099 14.848ZM68.5059 14.768C68.5059 14.384 68.4205 14.048 68.2499 13.76C68.0899 13.4613 67.8659 13.2107 67.5779 13.008C67.3005 12.8053 66.9912 12.6507 66.6499 12.544C66.3192 12.4373 65.9832 12.384 65.6419 12.384C65.1832 12.384 64.7352 12.4853 64.2979 12.688C63.8712 12.88 63.5192 13.1573 63.2419 13.52C62.9752 13.872 62.8419 14.2933 62.8419 14.784C62.8419 15.1573 62.9219 15.488 63.0819 15.776C63.2525 16.064 63.4765 16.3147 63.7539 16.528C64.0312 16.7307 64.3352 16.8853 64.6659 16.992C65.0072 17.0987 65.3485 17.152 65.6899 17.152C66.1485 17.152 66.5912 17.056 67.0179 16.864C67.4552 16.6613 67.8125 16.3787 68.0899 16.016C68.3672 15.6533 68.5059 15.2373 68.5059 14.768ZM63.2099 9.584C63.2099 9.98933 63.3325 10.3413 63.5779 10.64C63.8339 10.928 64.1539 11.1467 64.5379 11.296C64.9219 11.4453 65.2952 11.52 65.6579 11.52C66.0419 11.52 66.4205 11.4453 66.7939 11.296C67.1779 11.136 67.4925 10.912 67.7379 10.624C67.9939 10.3253 68.1219 9.968 68.1219 9.552C68.1219 9.14667 68.0045 8.8 67.7699 8.512C67.5352 8.224 67.2259 8.00533 66.8419 7.856C66.4685 7.70667 66.0685 7.632 65.6419 7.632C65.2365 7.632 64.8419 7.712 64.4579 7.872C64.0845 8.02133 63.7805 8.24533 63.5459 8.544C63.3219 8.832 63.2099 9.17867 63.2099 9.584ZM75.1884 12.464C75.1884 11.376 75.407 10.32 75.8444 9.296C76.2817 8.26133 76.8097 7.22133 77.4284 6.176L78.2604 6.576C78.047 6.896 77.8177 7.29067 77.5724 7.76C77.3377 8.22933 77.1137 8.736 76.9004 9.28C76.6977 9.81333 76.5324 10.3573 76.4044 10.912C76.2764 11.4667 76.2124 12 76.2124 12.512C76.2124 13.344 76.3937 14.2507 76.7564 15.232C77.119 16.2133 77.615 17.1893 78.2444 18.16L77.4284 18.592C76.9804 17.92 76.5857 17.2427 76.2444 16.56C75.9137 15.8773 75.6524 15.1947 75.4604 14.512C75.279 13.8187 75.1884 13.136 75.1884 12.464ZM85.4053 7.648H79.2773V6.64H87.1333L81.3733 18H80.1573L85.4053 7.648ZM95.813 14.848C95.813 15.5093 95.6263 16.0853 95.253 16.576C94.8903 17.0667 94.405 17.4507 93.797 17.728C93.1997 17.9947 92.5437 18.128 91.829 18.128C91.0717 18.128 90.3997 17.9787 89.813 17.68C89.2263 17.3707 88.7623 16.9653 88.421 16.464C88.0903 15.9627 87.925 15.4027 87.925 14.784C87.925 14.304 88.037 13.872 88.261 13.488C88.4957 13.0933 88.7837 12.7627 89.125 12.496C89.477 12.2293 89.8343 12.0373 90.197 11.92C89.8663 11.7813 89.557 11.6 89.269 11.376C88.981 11.1413 88.7517 10.8693 88.581 10.56C88.4103 10.2507 88.325 9.90933 88.325 9.536C88.325 9.06667 88.4263 8.656 88.629 8.304C88.8423 7.94133 89.1197 7.63733 89.461 7.392C89.8023 7.136 90.181 6.94933 90.597 6.832C91.0237 6.704 91.4503 6.64 91.877 6.64C92.293 6.64 92.709 6.704 93.125 6.832C93.5517 6.94933 93.9357 7.13067 94.277 7.376C94.629 7.62133 94.9063 7.92533 95.109 8.288C95.3223 8.64 95.429 9.05067 95.429 9.52C95.429 9.89333 95.3383 10.24 95.157 10.56C94.9863 10.8693 94.757 11.1413 94.469 11.376C94.181 11.6 93.8663 11.7813 93.525 11.92C93.941 12.0587 94.3197 12.272 94.661 12.56C95.013 12.8373 95.2903 13.168 95.493 13.552C95.7063 13.936 95.813 14.368 95.813 14.848ZM94.709 14.768C94.709 14.384 94.6237 14.048 94.453 13.76C94.293 13.4613 94.069 13.2107 93.781 13.008C93.5037 12.8053 93.1943 12.6507 92.853 12.544C92.5223 12.4373 92.1863 12.384 91.845 12.384C91.3863 12.384 90.9383 12.4853 90.501 12.688C90.0743 12.88 89.7223 13.1573 89.445 13.52C89.1783 13.872 89.045 14.2933 89.045 14.784C89.045 15.1573 89.125 15.488 89.285 15.776C89.4557 16.064 89.6797 16.3147 89.957 16.528C90.2343 16.7307 90.5383 16.8853 90.869 16.992C91.2103 17.0987 91.5517 17.152 91.893 17.152C92.3517 17.152 92.7943 17.056 93.221 16.864C93.6583 16.6613 94.0157 16.3787 94.293 16.016C94.5703 15.6533 94.709 15.2373 94.709 14.768ZM89.413 9.584C89.413 9.98933 89.5357 10.3413 89.781 10.64C90.037 10.928 90.357 11.1467 90.741 11.296C91.125 11.4453 91.4983 11.52 91.861 11.52C92.245 11.52 92.6237 11.4453 92.997 11.296C93.381 11.136 93.6957 10.912 93.941 10.624C94.197 10.3253 94.325 9.968 94.325 9.552C94.325 9.14667 94.2077 8.8 93.973 8.512C93.7383 8.224 93.429 8.00533 93.045 7.856C92.6717 7.70667 92.2717 7.632 91.845 7.632C91.4397 7.632 91.045 7.712 90.661 7.872C90.2877 8.02133 89.9837 8.24533 89.749 8.544C89.525 8.832 89.413 9.17867 89.413 9.584ZM100.193 12.464C100.193 13.136 100.103 13.8187 99.9214 14.512C99.74 15.1947 99.4787 15.8773 99.1374 16.56C98.796 17.2427 98.4014 17.92 97.9534 18.592L97.1534 18.16C97.7827 17.1893 98.2787 16.2133 98.6414 15.232C99.004 14.2507 99.1854 13.344 99.1854 12.512C99.1854 12 99.1214 11.4667 98.9934 10.912C98.8654 10.3573 98.6947 9.81333 98.4814 9.28C98.268 8.736 98.044 8.22933 97.8094 7.76C97.5747 7.29067 97.3454 6.896 97.1214 6.576L97.9694 6.176C98.588 7.22133 99.1107 8.26133 99.5374 9.296C99.9747 10.32 100.193 11.376 100.193 12.464ZM111.593 7.648H105.465V6.64H113.321L107.561 18H106.345L111.593 7.648ZM120.03 7.648H113.902V6.64H121.758L115.998 18H114.782L120.03 7.648ZM128.468 7.648H122.34V6.64H130.196L124.436 18H123.22L128.468 7.648ZM130.712 14.144V13.136H135.384V14.144H130.712ZM137.19 18C137.179 17.328 137.233 16.736 137.35 16.224C137.467 15.712 137.643 15.2587 137.878 14.864C138.123 14.4693 138.417 14.128 138.758 13.84C139.099 13.5413 139.483 13.28 139.91 13.056C140.315 12.832 140.737 12.6293 141.174 12.448C141.611 12.256 142.017 12.048 142.39 11.824C142.763 11.6 143.062 11.328 143.286 11.008C143.521 10.6773 143.638 10.2667 143.638 9.776C143.638 9.37067 143.547 8.99733 143.366 8.656C143.195 8.31467 142.929 8.04267 142.566 7.84C142.203 7.62667 141.745 7.52 141.19 7.52C140.646 7.52 140.161 7.61067 139.734 7.792C139.318 7.97333 138.966 8.192 138.678 8.448C138.401 8.704 138.177 8.93867 138.006 9.152L137.286 8.448C137.35 8.37333 137.478 8.22933 137.67 8.016C137.873 7.80267 138.139 7.57867 138.47 7.344C138.811 7.10933 139.211 6.912 139.67 6.752C140.139 6.58133 140.683 6.496 141.302 6.496C142.091 6.496 142.747 6.65067 143.27 6.96C143.793 7.25867 144.182 7.65333 144.438 8.144C144.705 8.63467 144.838 9.17333 144.838 9.76C144.838 10.3253 144.726 10.8053 144.502 11.2C144.289 11.584 144.006 11.9093 143.654 12.176C143.313 12.432 142.939 12.656 142.534 12.848C142.139 13.04 141.766 13.2213 141.414 13.392C140.731 13.7013 140.187 14.0053 139.782 14.304C139.377 14.6027 139.073 14.9013 138.87 15.2C138.678 15.4987 138.55 15.7973 138.486 16.096C138.422 16.3947 138.385 16.6987 138.374 17.008H144.854V18H137.19ZM151.191 18.16C150.423 18.1387 149.745 17.952 149.159 17.6C148.572 17.248 148.081 16.7893 147.687 16.224C147.292 15.648 146.993 15.0293 146.791 14.368C146.588 13.696 146.487 13.04 146.487 12.4C146.487 11.7173 146.593 11.0347 146.807 10.352C147.031 9.66933 147.345 9.05067 147.751 8.496C148.167 7.93067 148.663 7.48267 149.239 7.152C149.815 6.81067 150.465 6.64 151.191 6.64C151.969 6.64 152.647 6.82133 153.223 7.184C153.809 7.54667 154.3 8.016 154.695 8.592C155.089 9.168 155.383 9.792 155.575 10.464C155.777 11.136 155.879 11.7813 155.879 12.4C155.879 13.0933 155.767 13.7813 155.543 14.464C155.329 15.136 155.02 15.7493 154.615 16.304C154.209 16.8587 153.713 17.3067 153.127 17.648C152.551 17.9787 151.905 18.1493 151.191 18.16ZM147.623 12.4C147.644 12.9547 147.729 13.5147 147.879 14.08C148.039 14.6347 148.268 15.1467 148.567 15.616C148.865 16.0747 149.228 16.448 149.655 16.736C150.092 17.0133 150.604 17.152 151.191 17.152C151.788 17.152 152.311 17.0027 152.759 16.704C153.207 16.4053 153.575 16.016 153.863 15.536C154.161 15.0453 154.385 14.528 154.535 13.984C154.684 13.4293 154.759 12.9013 154.759 12.4C154.759 11.8453 154.679 11.2907 154.519 10.736C154.359 10.1707 154.124 9.65867 153.815 9.2C153.505 8.73067 153.132 8.35733 152.695 8.08C152.257 7.792 151.756 7.648 151.191 7.648C150.583 7.648 150.055 7.80267 149.607 8.112C149.159 8.41067 148.785 8.8 148.487 9.28C148.199 9.76 147.98 10.2773 147.831 10.832C147.692 11.376 147.623 11.8987 147.623 12.4ZM157.696 14.144V13.136H162.368V14.144H157.696ZM164.174 18C164.164 17.328 164.217 16.736 164.334 16.224C164.452 15.712 164.628 15.2587 164.862 14.864C165.108 14.4693 165.401 14.128 165.742 13.84C166.084 13.5413 166.468 13.28 166.894 13.056C167.3 12.832 167.721 12.6293 168.158 12.448C168.596 12.256 169.001 12.048 169.374 11.824C169.748 11.6 170.046 11.328 170.27 11.008C170.505 10.6773 170.622 10.2667 170.622 9.776C170.622 9.37067 170.532 8.99733 170.35 8.656C170.18 8.31467 169.913 8.04267 169.55 7.84C169.188 7.62667 168.729 7.52 168.174 7.52C167.63 7.52 167.145 7.61067 166.718 7.792C166.302 7.97333 165.95 8.192 165.662 8.448C165.385 8.704 165.161 8.93867 164.99 9.152L164.27 8.448C164.334 8.37333 164.462 8.22933 164.654 8.016C164.857 7.80267 165.124 7.57867 165.454 7.344C165.796 7.10933 166.196 6.912 166.654 6.752C167.124 6.58133 167.668 6.496 168.286 6.496C169.076 6.496 169.732 6.65067 170.254 6.96C170.777 7.25867 171.166 7.65333 171.422 8.144C171.689 8.63467 171.822 9.17333 171.822 9.76C171.822 10.3253 171.71 10.8053 171.486 11.2C171.273 11.584 170.99 11.9093 170.638 12.176C170.297 12.432 169.924 12.656 169.518 12.848C169.124 13.04 168.75 13.2213 168.398 13.392C167.716 13.7013 167.172 14.0053 166.766 14.304C166.361 14.6027 166.057 14.9013 165.854 15.2C165.662 15.4987 165.534 15.7973 165.47 16.096C165.406 16.3947 165.369 16.6987 165.358 17.008H171.838V18H164.174ZM178.175 18.16C177.407 18.1387 176.73 17.952 176.143 17.6C175.556 17.248 175.066 16.7893 174.671 16.224C174.276 15.648 173.978 15.0293 173.775 14.368C173.572 13.696 173.471 13.04 173.471 12.4C173.471 11.7173 173.578 11.0347 173.791 10.352C174.015 9.66933 174.33 9.05067 174.735 8.496C175.151 7.93067 175.647 7.48267 176.223 7.152C176.799 6.81067 177.45 6.64 178.175 6.64C178.954 6.64 179.631 6.82133 180.207 7.184C180.794 7.54667 181.284 8.016 181.679 8.592C182.074 9.168 182.367 9.792 182.559 10.464C182.762 11.136 182.863 11.7813 182.863 12.4C182.863 13.0933 182.751 13.7813 182.527 14.464C182.314 15.136 182.004 15.7493 181.599 16.304C181.194 16.8587 180.698 17.3067 180.111 17.648C179.535 17.9787 178.89 18.1493 178.175 18.16ZM174.607 12.4C174.628 12.9547 174.714 13.5147 174.863 14.08C175.023 14.6347 175.252 15.1467 175.551 15.616C175.85 16.0747 176.212 16.448 176.639 16.736C177.076 17.0133 177.588 17.152 178.175 17.152C178.772 17.152 179.295 17.0027 179.743 16.704C180.191 16.4053 180.559 16.016 180.847 15.536C181.146 15.0453 181.37 14.528 181.519 13.984C181.668 13.4293 181.743 12.9013 181.743 12.4C181.743 11.8453 181.663 11.2907 181.503 10.736C181.343 10.1707 181.108 9.65867 180.799 9.2C180.49 8.73067 180.116 8.35733 179.679 8.08C179.242 7.792 178.74 7.648 178.175 7.648C177.567 7.648 177.039 7.80267 176.591 8.112C176.143 8.41067 175.77 8.8 175.471 9.28C175.183 9.76 174.964 10.2773 174.815 10.832C174.676 11.376 174.607 11.8987 174.607 12.4Z" fill="white"/>
</svg>
