<svg width="20" height="20" viewBox="0 0 20 20" fill="none" xmlns="http://www.w3.org/2000/svg">
<path d="M17.5583 4.35832C16.2167 4.22499 14.875 4.12499 13.525 4.04999V4.04166L13.3417 2.95832C13.2167 2.19166 13.0333 1.04166 11.0833 1.04166H8.89999C6.95832 1.04166 6.77499 2.14166 6.64165 2.94999L6.46666 4.01666C5.69166 4.06666 4.91666 4.11666 4.14166 4.19166L2.44166 4.35832C2.09166 4.39166 1.84166 4.69999 1.87499 5.04166C1.90832 5.38332 2.20832 5.63332 2.55832 5.59999L4.25832 5.43332C8.62499 4.99999 13.025 5.16666 17.4417 5.60832C17.4667 5.60832 17.4833 5.60832 17.5083 5.60832C17.825 5.60832 18.1 5.36666 18.1333 5.04166C18.1583 4.69999 17.9083 4.39166 17.5583 4.35832Z" fill="#E75E5E"/>
<path d="M16.025 6.78334C15.825 6.57501 15.55 6.45834 15.2667 6.45834H4.73335C4.45002 6.45834 4.16668 6.57501 3.97502 6.78334C3.78335 6.99168 3.67501 7.27501 3.69168 7.56668L4.20835 16.1167C4.30002 17.3833 4.41668 18.9667 7.32502 18.9667H12.675C15.5833 18.9667 15.7 17.3917 15.7917 16.1167L16.3083 7.57501C16.325 7.27501 16.2167 6.99168 16.025 6.78334ZM11.3833 14.7917H8.60835C8.26668 14.7917 7.98335 14.5083 7.98335 14.1667C7.98335 13.825 8.26668 13.5417 8.60835 13.5417H11.3833C11.725 13.5417 12.0083 13.825 12.0083 14.1667C12.0083 14.5083 11.725 14.7917 11.3833 14.7917ZM12.0833 11.4583H7.91668C7.57502 11.4583 7.29168 11.175 7.29168 10.8333C7.29168 10.4917 7.57502 10.2083 7.91668 10.2083H12.0833C12.425 10.2083 12.7083 10.4917 12.7083 10.8333C12.7083 11.175 12.425 11.4583 12.0833 11.4583Z" fill="#E75E5E"/>
</svg>
